<?xml version="1.0" encoding="utf-8"?>
<!-- Generator: Adobe Illustrator 21.0.0, SVG Export Plug-In . SVG Version: 6.00 Build 0)  -->
<svg version="1.1" id="图层_1" xmlns="http://www.w3.org/2000/svg" xmlns:xlink="http://www.w3.org/1999/xlink" x="0px" y="0px"
   viewBox="0 0 152 163" style="enable-background:new 0 0 152 163;" xml:space="preserve">
<style type="text/css">
  .st0{fill:#d9d9d9;}
  .st1{fill:#d9d9d9;}
  .st2{fill-rule:evenodd;clip-rule:evenodd;fill:#d9d9d9;}
</style>
<g>
  <polygon class="st0" points="92.1,104.5 112.9,104.5 102.5,86.6  "/>
  <polygon class="st1" points="121.4,54 102.5,86.6 112.9,104.5 150.8,104.5  "/>
  <polygon class="st1" points="57.4,8.8 1.8,104.5 92.1,104.5 102.5,86.6   "/>
  <ellipse class="st2" cx="128.2" cy="12.8" rx="12.9" ry="12.8"/>
  <path class="st1" d="M21.1,133l0,17.4c0,6-1.2,9.3-3.7,10.2l0.3,1.4c3.6-0.6,6.3-2.2,7.9-4.8l0,0c1-1.3,1.4-4,1.3-7.9l0-0.9l0-15.5
    H21.1z"/>
  <path class="st1" d="M2.5,157.2L2.5,157.2c1.6,2.6,4.3,4.2,7.9,4.8l0.3-1.4c-2.5-0.9-3.7-4.3-3.7-10.2L7,133H1.2l0,16.3
    C1.1,153.3,1.6,155.9,2.5,157.2z"/>
  <rect x="106.9" y="133.1" class="st1" width="3.2" height="15.4"/>
  <path class="st1" d="M144.4,144.2c1.7,1.9,3,3.3,3.9,4.3h1.7v-15.4h-1.5v11.1l-0.3-0.4c-1.5-1.7-3.7-4.1-6.6-7.2
    c-1.5-1.6-2.6-2.8-3.3-3.6h-2v15.4h1.4v-11.4l2.9,3C141.4,141,142.7,142.4,144.4,144.2z"/>
  <path class="st1" d="M64.1,141.9c0.5,0.9,1,1.7,1.5,2.4l2.5,4.3h3.5l-0.6-1c-1.3-1.8-2.5-3.8-3.6-5.7l-0.1-0.2l0.2-0.1
    c1.9-0.5,3.2-2.2,3.2-4.1v-0.1c0-2.3-1.9-4.2-4.2-4.2h-6.3v15.4h3.5v-6.8L64.1,141.9L64.1,141.9z M63.6,133.9h0.8
    c1.7,0,3.1,1.6,3.1,3.5c0,2-1.4,3.5-3.1,3.5h-0.8V133.9z"/>
  <path class="st1" d="M43.8,137.5v-0.1c0-2.3-1.9-4.2-4.2-4.2h-6.3v15.4h3.5v-6.9h2.8C41.9,141.7,43.8,139.8,43.8,137.5z M37.5,141
    h-0.8v-7.1h0.8c1.7,0,3.1,1.6,3.1,3.5C40.6,139.4,39.2,141,37.5,141z"/>
  <path class="st1" d="M123.3,133l-0.1,0l-0.1,0c-5.4,0.1-8.4,3-8.4,8c0,5.1,3,7.9,8.4,8l0.1,0l0.1,0c5.4-0.1,8.4-3,8.4-8
    C131.7,136,128.7,133.1,123.3,133z M123.2,148.1L123.2,148.1L123.2,148.1c-3.1-0.2-4.8-2.4-5.1-6.6c0-0.2,0-0.3,0-0.4v0
    c0-0.1,0-0.3,0-0.4c0.3-4.2,1.9-6.5,5-6.6l0,0l0,0c3.1,0.2,4.8,2.4,5,6.6c0,0.1,0,0.2,0,0.2c0,0.1,0,0.2,0,0.2c0,0.1,0,0.2,0,0.2
    c0,0.1,0,0.1,0,0.2C128,145.7,126.3,147.9,123.2,148.1z"/>
  <polygon class="st1" points="84.1,144 85.8,148.6 89.5,148.6 83,132.9 81.4,132.9 74.6,148.6 76.6,148.6 78,144.9 81.8,144.9 
    81.8,143.5 78.6,143.5 81.3,136.8  "/>
  <polygon class="st1" points="56.1,148.5 56.1,146.9 51.1,146.9 51.1,141.2 55.3,141.2 55.3,139.6 51.1,139.5 51.1,134.8 
    56.1,134.7 56.1,133.1 47.6,133.1 47.6,148.6 51.1,148.6 51.3,148.5   "/>
  <polygon class="st1" points="102.8,133.1 91.2,133.1 91.2,134.8 95.2,134.8 95.2,148.6 98.8,148.6 98.8,134.8 102.8,134.7  "/>
  <g>
    <g>
      <path class="st1" d="M66.6,157.9h-2.4c0-0.2-0.1-0.3-0.1-0.4c0-0.1-0.1-0.1-0.1-0.2c0,0,0,0,0,0h2c0.2,0,0.4-0.2,0.4-0.4l0-1.2
        c0-0.2-0.2-0.3-0.4-0.4l-2.1,0c0,0,0,0,0,0c0-0.1-0.1-0.2-0.1-0.3c-0.1-0.1-0.1-0.2-0.1-0.3c0-0.1-0.2-0.2-0.3-0.2l-0.2,0.1
        c-0.1,0-0.1,0.1-0.2,0.1c0,0.1,0,0.1,0,0.2c0.1,0.1,0.1,0.2,0.1,0.3l-2.5,0c-0.2,0-0.3,0.2-0.4,0.4v2.4c0,0.9,0,1.5-0.1,1.9
        c-0.1,0.4-0.3,0.8-0.6,1.2c-0.1,0.1-0.1,0.3,0,0.3l0.2,0.1c0.1,0,0.1,0.1,0.2,0.1c0.1,0,0.1-0.1,0.2-0.1c0.3-0.5,0.5-0.9,0.6-1.4
        c0.1-0.4,0.2-1.1,0.2-1.9c0,0.1,0.1,0.2,0.2,0.2h1.1c0,0.8-0.1,1.3-0.3,1.7c-0.2,0.3-0.6,0.7-1.2,1.1c-0.1,0-0.1,0.1-0.1,0.2
        c0,0.1,0,0.1,0.1,0.2l0.2,0.2c0,0.1,0.1,0.1,0.2,0.1c0,0,0.1,0,0.1,0c0.9-0.6,1.5-1.3,1.6-2.2l2.5,0c0,0,0,0,0,0
        c0,0.1,0,0.2,0,0.4l0,0.3c0,0.2-0.1,0.4-0.2,0.5c-0.1,0.1-0.3,0.1-0.5,0.1h-1c-0.1,0-0.1,0-0.2,0.1c0,0.1-0.1,0.1-0.1,0.2l0,0.2
        c0,0.1,0.1,0.2,0.2,0.2h1c0.8,0,1.3-0.4,1.3-1.2c0-0.1,0-0.4,0.1-0.7c0-0.2,0-0.3,0-0.4c0-0.2-0.2-0.4-0.4-0.4h-2.7l0-0.2
        c0-0.1,0-0.3,0-0.4h3.8c0.1,0,0.3-0.1,0.3-0.3v-0.1C66.9,158,66.7,157.9,66.6,157.9z M65.5,156C65.6,156,65.6,156.1,65.5,156
        l0.1,0.6h-4.8V156H65.5z M60.8,156L60.8,156L60.8,156C60.8,156,60.8,156,60.8,156z M60.8,158.1v-0.8h2.8l-0.1,0
        c-0.1,0-0.1,0.1-0.2,0.1c0,0.1,0,0.1,0,0.2c0,0,0,0.1,0,0.2c0,0,0,0.1,0,0.1H61C60.9,157.9,60.8,158,60.8,158.1z"/>
      <path class="st1" d="M75.7,157.4h-3.3v-1.1h2.8c0.1,0,0.3-0.1,0.3-0.3v-0.2c0-0.1-0.1-0.3-0.3-0.3h-2.8v-0.7
        c0-0.1-0.1-0.3-0.3-0.3H72c-0.1,0-0.3,0.1-0.3,0.3v2.5h-2.7c-0.1,0-0.3,0.1-0.3,0.3v0.2c0,0.1,0.1,0.3,0.3,0.3h6.7
        c0.1,0,0.3-0.1,0.3-0.3v-0.2C76,157.5,75.9,157.4,75.7,157.4z"/>
      <path class="st1" d="M75.3,160c-0.3-0.1-0.8-0.4-1.4-0.6c-0.5-0.2-1.3-0.7-1.6-0.8c0,0-0.1,0-0.1,0c0,0,0,0-0.1,0H72
        c-0.1,0-0.3,0.1-0.3,0.3v2.9c0,0.1,0.1,0.3,0.3,0.3h0.2c0.1,0,0.3-0.1,0.3-0.3v-2.3c0.6,0.3,1.6,0.8,2.5,1.3
        c0.1,0.1,0.3,0,0.3-0.1l0.1-0.2c0-0.1,0.1-0.1,0-0.2C75.4,160.1,75.4,160,75.3,160z"/>
      <path class="st1" d="M52.1,160.7c0,0.1,0.1,0.1,0.2,0.1c0.1,0,0.1,0,0.2-0.1l0.2-0.1c0.1,0,0.1-0.1,0.1-0.2c0-0.1,0-0.1-0.1-0.2
        c-0.1-0.1-0.2-0.2-0.3-0.4l-0.4-0.4c-0.1-0.1-0.2-0.1-0.3,0l-0.2,0.1c-0.1,0-0.1,0.1-0.1,0.2c0,0.1,0,0.1,0.1,0.2
        c0.1,0.1,0.1,0.1,0.2,0.2C51.8,160.4,52,160.6,52.1,160.7z"/>
      <path class="st1" d="M57.2,156.8c-1.3-0.5-2.3-1.2-2.9-2c0-0.1-0.1-0.1-0.2-0.1h-0.5c-0.1,0-0.1,0-0.2,0.1
        c-0.7,0.8-1.7,1.5-3,2.1c-0.1,0-0.1,0.1-0.1,0.1c0,0.1,0,0.1,0,0.2l0.1,0.2c0.1,0.1,0.2,0.2,0.3,0.1c0.2-0.1,0.5-0.2,0.7-0.3
        c0,0,0,0,0,0v0.2c0,0.1,0.1,0.3,0.3,0.3h4.2c0.1,0,0.3-0.1,0.3-0.3v-0.2c0-0.1,0-0.1-0.1-0.2c0.3,0.1,0.6,0.3,0.8,0.4
        c0.1,0,0.3,0,0.3-0.1l0.1-0.2c0-0.1,0-0.1,0-0.2C57.4,156.8,57.3,156.8,57.2,156.8z M53.8,155.3c0.6,0.7,1.3,1.2,2.1,1.6
        c0,0,0,0,0,0h-4.1C52.7,156.5,53.4,155.9,53.8,155.3z"/>
      <path class="st1" d="M55.8,159.5c-0.2,0.2-0.4,0.4-0.7,0.7v0c-0.1,0-0.1,0.1-0.1,0.2c0,0.1,0,0.1,0.1,0.2l0.1,0.1
        c0,0,0.1,0.1,0.2,0.1c0.1,0,0.1,0,0.2-0.1c0.1-0.1,0.2-0.2,0.4-0.4l0.4-0.4c0.1-0.1,0.1-0.1,0.1-0.2c0-0.1,0-0.1-0.1-0.2
        l-0.2-0.1C56,159.4,55.9,159.4,55.8,159.5z"/>
      <path class="st1" d="M57.1,161h-2.9v-1.8h2.4c0.1,0,0.3-0.1,0.3-0.3v-0.1c0-0.1-0.1-0.3-0.3-0.3h-2.4v-0.4c0-0.1-0.1-0.3-0.3-0.3
        h-0.2c-0.1,0-0.3,0.1-0.3,0.3v0.4h-2.4c-0.1,0-0.3,0.1-0.3,0.3v0.1c0,0.1,0.1,0.3,0.3,0.3h2.4v1.8h-2.8c-0.1,0-0.3,0.1-0.3,0.3
        v0.2c0,0.1,0.1,0.3,0.3,0.3h6.4c0.1,0,0.3-0.1,0.3-0.3v-0.2C57.3,161.1,57.2,161,57.1,161z"/>
      <path class="st1" d="M80.6,158.2c0,0.1,0.1,0.3,0.3,0.3h3.8c0.1,0,0.3-0.1,0.3-0.3v-0.1c0-0.1-0.1-0.3-0.3-0.3h-3.8
        c-0.1,0-0.3,0.1-0.3,0.3V158.2z"/>
      <path class="st1" d="M84.6,159L84.6,159h-3.7c-0.2,0-0.4,0.2-0.4,0.5l0,1.6c0,0.3,0.2,0.4,0.4,0.4l3.7,0c0.2,0,0.4-0.2,0.4-0.5
        l0-1.6C85,159.2,84.8,159,84.6,159z M84.3,160.9C84.3,160.9,84.3,160.9,84.3,160.9l-3.1,0c-0.1,0-0.1,0-0.1,0v-1.2c0,0,0,0,0.1,0
        h3c0.1,0,0.1,0.1,0.1,0.1L84.3,160.9z"/>
      <path class="st1" d="M80.9,157.3h3.8c0.1,0,0.3-0.1,0.3-0.3v-0.1c0-0.1-0.1-0.3-0.3-0.3h-3.8c-0.1,0-0.3,0.1-0.3,0.3v0.1
        C80.6,157.2,80.7,157.3,80.9,157.3z"/>
      <path class="st1" d="M80.2,155c0-0.1,0-0.1,0-0.2c0-0.1-0.1-0.1-0.2-0.1l-0.2,0c-0.1,0-0.3,0-0.3,0.2c-0.3,1.1-0.8,2.2-1.4,3
        c0,0.1-0.1,0.1,0,0.2c0,0.1,0.1,0.1,0.1,0.2l0.1,0.1c0.1,0,0.1,0.1,0.2,0c0.1,0,0.1-0.1,0.2-0.1c0.1-0.2,0.2-0.3,0.3-0.5v3.6
        c0,0.1,0.1,0.3,0.3,0.3h0.1c0.1,0,0.3-0.1,0.3-0.3l0-4.9C79.9,156.1,80.1,155.6,80.2,155z"/>
      <path class="st1" d="M85,155.5h-2.1l0,0c0.1,0,0.1-0.1,0.1-0.2c0-0.1,0-0.1,0-0.2c-0.1-0.1-0.1-0.2-0.2-0.3
        c-0.1-0.1-0.2-0.2-0.3-0.1l-0.1,0.1c-0.1,0-0.1,0.1-0.1,0.2c0,0.1,0,0.1,0,0.2c0,0.1,0.1,0.1,0.1,0.2l0.1,0.1h-2
        c-0.1,0-0.3,0.1-0.3,0.3v0.1c0,0.1,0.1,0.3,0.3,0.3H85c0.1,0,0.3-0.1,0.3-0.3v-0.1C85.3,155.6,85.2,155.5,85,155.5z"/>
      <path class="st1" d="M93.6,158.6l0-2.9c0-0.1-0.1-0.4-0.5-0.4h-2.4c0-0.1,0.1-0.2,0.1-0.2v0c0-0.1,0-0.1,0-0.2
        c0-0.1-0.1-0.1-0.2-0.1l-0.2,0c-0.1,0-0.3,0.1-0.3,0.2c0,0.1-0.1,0.2-0.1,0.3c0,0,0,0.1,0,0.1l-1.4,0c-0.3,0-0.4,0.2-0.5,0.5v2.9
        l0,0c0.1,0.2,0.2,0.4,0.4,0.4l0,0l4.4,0C93.4,159.1,93.6,158.9,93.6,158.6z M88.9,156.3V156c0-0.1,0.1-0.1,0.1-0.1h3.9v0.5H88.9z
         M92.9,158.4l-4,0c0,0,0,0,0,0V158h4V158.4z M88.9,157.4v-0.4h4v0.4H88.9z"/>
      <path class="st1" d="M93.8,159.5c0,0,0-0.1-0.1-0.1l-0.1-0.1l-0.3,0.2c-0.1,0-0.1,0.1-0.1,0.2c0,0.1,0,0.1,0.1,0.2
        c0.3,0.3,0.5,0.5,0.6,0.7c0,0.1,0.1,0.1,0.2,0.1c0,0,0,0,0,0c0.1,0,0.1,0,0.2-0.1l0.1-0.1c0.1,0,0.1-0.1,0.1-0.2
        c0-0.1,0-0.1-0.1-0.2L93.8,159.5z"/>
      <path class="st1" d="M91.2,160.3c0.1,0,0.1,0,0.2-0.1l0.1-0.1c0.1,0,0.1-0.1,0.1-0.2c0-0.1,0-0.1-0.1-0.2l-0.1-0.1
        c-0.2-0.2-0.3-0.3-0.4-0.4c-0.1-0.1-0.2-0.1-0.3,0l-0.1,0.1c-0.1,0-0.1,0.1-0.1,0.2c0,0.1,0,0.1,0.1,0.2c0.1,0.1,0.3,0.3,0.5,0.5
        C91.1,160.3,91.1,160.3,91.2,160.3z"/>
      <path class="st1" d="M92.9,160.1l-0.2-0.1c-0.1,0-0.2,0-0.2,0c-0.1,0-0.1,0.1-0.1,0.2c0,0.1-0.1,0.3-0.1,0.4
        c0,0.1-0.1,0.3-0.6,0.3l-1.5,0c-0.2,0-0.4,0-0.4-0.1c-0.1-0.1-0.1-0.2-0.1-0.3v-0.8c0-0.1-0.1-0.3-0.3-0.3h-0.1
        c-0.1,0-0.3,0.1-0.3,0.3l0,0.8c0,0.4,0.1,0.7,0.3,0.9c0.2,0.2,0.4,0.2,0.7,0.2c0,0,0.1,0,0.1,0l1.7,0c0.8,0,1.1-0.4,1.2-0.8
        c0.1-0.2,0.1-0.3,0.1-0.5C93.1,160.2,93,160.1,92.9,160.1z"/>
      <path class="st1" d="M88.3,159.7l-0.1-0.1c-0.1,0-0.1,0-0.2,0c-0.1,0-0.1,0.1-0.1,0.1c-0.1,0.3-0.2,0.6-0.4,0.9v0
        c-0.1,0.1,0,0.3,0.1,0.3l0.1,0.1c0,0,0.1,0,0.1,0c0,0,0.1,0,0.1,0c0.1,0,0.1-0.1,0.2-0.1c0.2-0.4,0.3-0.7,0.4-1
        C88.5,159.9,88.4,159.7,88.3,159.7z"/>
      <path class="st1" d="M101.2,156.7L101.2,156.7c0,0,0.1,0.1,0.2,0.1c0.1,0,0.1,0,0.2-0.1l0.1-0.1c0.1-0.1,0.1-0.1,0.1-0.2
        c0-0.1,0-0.1-0.1-0.2l-0.8-0.6c-0.1-0.1-0.3-0.1-0.3,0l-0.1,0.1c-0.1,0.1-0.1,0.1-0.1,0.2c0,0.1,0,0.1,0.1,0.2
        C100.7,156.2,100.9,156.5,101.2,156.7z"/>
      <path class="st1" d="M100.7,158.4L100.7,158.4c0.1,0,0.1,0.1,0.2,0.1c0.1,0,0.1,0,0.2-0.1l0.1-0.1c0.1-0.1,0.1-0.1,0.1-0.2
        c0-0.1,0-0.1-0.1-0.2c-0.3-0.2-0.5-0.4-0.7-0.6c-0.1-0.1-0.3-0.1-0.4,0l-0.1,0.1c0,0.1-0.1,0.1-0.1,0.2c0,0.1,0,0.1,0.1,0.2
        C100.2,157.9,100.5,158.2,100.7,158.4z"/>
      <path class="st1" d="M103.7,158.9c-0.1,0-0.1-0.1-0.2-0.1l-0.7,0.1v-4c0-0.1-0.1-0.3-0.3-0.3h-0.1c-0.1,0-0.3,0.1-0.3,0.3v4.1
        l-2.4,0.2c-0.1,0-0.2,0.1-0.2,0.3l0,0.1c0,0.1,0,0.1,0.1,0.2c0.1,0,0.1,0.1,0.2,0.1l2.4-0.2v1.7c0,0.1,0.1,0.3,0.3,0.3h0.1
        c0.1,0,0.3-0.1,0.3-0.3v-1.8l0.8-0.1c0.1,0,0.2-0.1,0.2-0.3l0-0.1C103.8,159.1,103.8,159,103.7,158.9z"/>
      <path class="st1" d="M99.6,158.6c0-0.1,0-0.1-0.1-0.2l-0.6-0.5c-0.1-0.1-0.2-0.1-0.3,0v-0.6h0.7c0.1,0,0.3-0.1,0.3-0.3v-0.1
        c0-0.1-0.1-0.3-0.3-0.3h-0.7v-1.1c0.2,0,0.5,0,0.7-0.1c0.1,0,0.1,0,0.2-0.1c0-0.1,0.1-0.1,0-0.2l0-0.1c0-0.1-0.2-0.2-0.3-0.2
        c-0.8,0.1-1.5,0.2-2,0.2c-0.1,0-0.1,0-0.2,0.1c0,0.1-0.1,0.1-0.1,0.2l0,0.1c0,0.1,0.1,0.2,0.3,0.2c0.1,0,0.2,0,0.3,0
        c0.1,0,0.2,0,0.3,0v1h-0.8c-0.1,0-0.3,0.1-0.3,0.3v0.1c0,0.1,0.1,0.3,0.3,0.3h0.8c-0.3,0.8-0.7,1.6-1.1,2.3
        c-0.1,0.1-0.1,0.3,0.1,0.4l0.1,0.1c0.1,0,0.1,0.1,0.2,0c0.1,0,0.1-0.1,0.2-0.1c0.2-0.4,0.4-0.8,0.6-1.2v2.6
        c0,0.1,0.1,0.3,0.3,0.3h0.1c0.1,0,0.3-0.1,0.3-0.3v-2.8c0,0,0.1,0.1,0.2,0.1l0.2,0.2c0.1,0.1,0.3,0.1,0.4,0l0.1-0.1
        C99.5,158.8,99.6,158.7,99.6,158.6z"/>
      <path class="st1" d="M112.8,155.7h-1.6v-0.8c0-0.1-0.1-0.3-0.3-0.3h-0.2c-0.1,0-0.3,0.1-0.3,0.3v0.8H109c-0.1,0-0.3,0.1-0.3,0.3
        v0.2c0,0.1,0.1,0.3,0.3,0.3h1.5v1h-1.4c-0.1,0-0.3,0.1-0.3,0.3v0.1l0.3,0.3c0.3,1,0.7,1.7,1.2,2.2c-0.4,0.3-1,0.6-1.8,0.9
        c-0.1,0-0.1,0.1-0.1,0.2c0,0.1,0,0.1,0,0.2l0.1,0.2c0,0.1,0.1,0.1,0.2,0.1c0,0,0.1,0,0.1,0c0.9-0.3,1.6-0.7,2.1-1.1
        c0.4,0.4,1,0.7,1.8,1c0.1,0,0.2,0,0.3-0.1l0.1-0.2c0-0.1,0.1-0.1,0-0.2c0-0.1-0.1-0.1-0.2-0.2c-0.7-0.3-1.2-0.5-1.6-0.8
        c0.6-0.6,1-1.3,1.3-2.2c0.1-0.1,0.1-0.2,0-0.4c0-0.1,0-0.1-0.1-0.1c-0.1-0.1-0.2-0.1-0.3-0.1h-1.1v-1h1.6c0.1,0,0.3-0.1,0.3-0.3
        V156C113,155.8,112.9,155.7,112.8,155.7z M111.9,158c-0.3,0.8-0.7,1.3-1.1,1.7c-0.4-0.5-0.7-1-0.9-1.7L111.9,158z"/>
      <path class="st1" d="M108.5,158.2V158c0-0.1,0-0.2-0.1-0.2c-0.1,0-0.2-0.1-0.2,0c-0.1,0-0.2,0.1-0.3,0.1c0,0-0.1,0-0.1,0v-1.3
        h0.5c0.1,0,0.3-0.1,0.3-0.3v-0.1c0-0.1-0.1-0.3-0.3-0.3h-0.5v-1c0-0.1-0.1-0.3-0.3-0.3h-0.2c-0.1,0-0.3,0.1-0.3,0.3v1h-0.7
        c-0.1,0-0.3,0.1-0.3,0.3v0.1c0,0.1,0.1,0.3,0.3,0.3h0.7v1.5c-0.1,0-0.2,0.1-0.4,0.1c-0.2,0-0.3,0.1-0.4,0.1
        c-0.1,0-0.2,0.2-0.2,0.3l0,0.2c0,0.1,0.1,0.1,0.1,0.2c0.1,0,0.1,0.1,0.2,0c0.2-0.1,0.4-0.1,0.6-0.2l0,1.9c0,0.1,0,0.2-0.1,0.3
        c0,0-0.1,0.1-0.2,0.1c-0.1,0-0.2,0-0.3,0c-0.1,0-0.2,0-0.2,0.1c-0.1,0.1-0.1,0.1-0.1,0.2l0,0.2c0,0.1,0.1,0.2,0.3,0.2h0.4
        c0.3,0,0.5-0.1,0.6-0.2c0.2-0.2,0.2-0.4,0.2-0.8v-2.1c0.2-0.1,0.4-0.1,0.6-0.2C108.4,158.4,108.5,158.3,108.5,158.2z"/>
      <path class="st1" d="M122.1,155.5h-3.5c0-0.1,0.1-0.1,0.1-0.2c0-0.1,0.1-0.1,0.1-0.2c0-0.1,0-0.1,0-0.2c0-0.1-0.1-0.1-0.2-0.2
        l-0.2-0.1c-0.1,0-0.3,0-0.3,0.1c-0.1,0.2-0.2,0.5-0.3,0.7h-2c-0.1,0-0.3,0.1-0.3,0.3v0.1c0,0.1,0.1,0.3,0.3,0.3h1.6
        c-0.6,0.9-1.3,1.6-2,2.3c-0.1,0-0.1,0.1-0.1,0.2c0,0.1,0,0.1,0.1,0.2l0.1,0.1c0,0.1,0.1,0.1,0.2,0.1c0.1,0,0.1,0,0.2-0.1
        c0.3-0.3,0.6-0.5,0.8-0.8v3.3c0,0.1,0.1,0.3,0.3,0.3h0.2c0.1,0,0.3-0.1,0.3-0.3v-1.3h3.5l0,0.5c0,0.1,0,0.2-0.1,0.3
        c-0.1,0.1-0.2,0.1-0.3,0.1h-0.8c-0.1,0-0.2,0-0.2,0.1c0,0.1-0.1,0.1,0,0.2l0.1,0.2c0,0.1,0.1,0.2,0.3,0.2c0,0,0,0,0,0
        c0.4,0,0.7,0,0.8,0c0.3,0,0.6-0.1,0.8-0.2c0.2-0.2,0.2-0.4,0.2-0.7l0-3.5c0-0.2-0.2-0.3-0.4-0.4h-3.4c0.2-0.2,0.3-0.5,0.4-0.7
        h3.9c0.1,0,0.3-0.1,0.3-0.3v-0.1C122.3,155.6,122.2,155.5,122.1,155.5z M120.8,157.5C120.9,157.5,120.9,157.5,120.8,157.5
        l0.1,0.7h-3.5v-0.7H120.8z M117.4,157.4L117.4,157.4L117.4,157.4C117.4,157.4,117.4,157.4,117.4,157.4z M120.9,158.8v0.7h-3.5
        v-0.7H120.9z"/>
      <path class="st1" d="M126.4,157.3l0.6-1.7c0-0.1,0-0.2,0.1-0.3c0-0.1,0-0.3-0.1-0.3c-0.1-0.1-0.2-0.2-0.3-0.2l-1.5,0
        c-0.2,0-0.4,0.2-0.4,0.4v6.1c0,0.1,0.1,0.3,0.3,0.3h0.2c0.1,0,0.3-0.1,0.3-0.3l0-5.9h0.9l-0.5,1.7c-0.1,0.3,0,0.5,0.1,0.6
        c0.4,0.5,0.6,1,0.5,1.4c0,0.5-0.2,0.6-0.4,0.6h-0.3c-0.1,0-0.2,0-0.2,0.1c0,0.1-0.1,0.1,0,0.2l0,0.1c0,0.1,0.1,0.2,0.3,0.2l0,0
        c0.1,0,0.3,0,0.3,0c0.4,0,0.9-0.3,0.9-1.2C127.1,158.7,126.9,158.1,126.4,157.3C126.4,157.4,126.4,157.4,126.4,157.3z"/>
      <path class="st1" d="M131.4,160.9c-0.5-0.3-1-0.6-1.3-0.9c0.1-0.1,0.3-0.2,0.5-0.3c0.3-0.2,0.5-0.3,0.7-0.4
        c0.1,0,0.1-0.1,0.1-0.2c0-0.1,0-0.1,0-0.2l-0.1-0.1c-0.1-0.1-0.2-0.1-0.4-0.1c-0.5,0.3-0.9,0.6-1.2,0.8c-0.2-0.3-0.3-0.6-0.5-1
        l1.3,0c0.2,0,0.4-0.2,0.4-0.4l0-2.8c0-0.2-0.2-0.4-0.4-0.4h-2.8c-0.2,0-0.4,0.2-0.4,0.4v5.5c0,0.3,0,0.4,0.1,0.6
        c0.1,0.1,0.3,0.3,0.7,0.1l0.9-0.5c0.1-0.1,0.2-0.2,0.1-0.3l0-0.2c0-0.1-0.1-0.1-0.2-0.2c-0.1,0-0.2,0-0.2,0
        c-0.2,0.1-0.5,0.3-0.8,0.4v-2.3h0.5c0.4,1.4,1.2,2.4,2.5,3.1c0,0,0.1,0,0.1,0c0.1,0,0.2,0,0.2-0.1l0.1-0.2c0-0.1,0-0.1,0-0.2
        C131.5,161,131.4,161,131.4,160.9z M130.3,157v0.8H128V157H130.3z M130.2,155.5C130.2,155.5,130.3,155.5,130.2,155.5l0.1,0.8H128
        v-0.8H130.2z M128,155.5L128,155.5L128,155.5C128,155.5,128,155.5,128,155.5z"/>
      <path class="st1" d="M136.8,155.5c0-0.1,0-0.1,0-0.2c0-0.1-0.1-0.1-0.1-0.2l-0.2-0.1c-0.1-0.1-0.3,0-0.3,0.1
        c-0.5,1.1-1.2,2-2.1,2.6h0c-0.1,0-0.1,0.1-0.1,0.2c0,0.1,0,0.1,0.1,0.2l0.2,0.2c0.1,0.1,0.1,0.1,0.2,0.1c0.1,0,0.1,0,0.2-0.1
        C135.4,157.5,136.2,156.5,136.8,155.5z"/>
      <path class="st1" d="M138.7,155.1c-0.1-0.1-0.2-0.2-0.3-0.1l-0.2,0c-0.1,0-0.1,0.1-0.2,0.1c0,0.1,0,0.1,0,0.2
        c0.5,1.1,1.2,2.1,2.2,2.8c0,0,0.1,0.1,0.2,0.1c0.1,0,0.2,0,0.2-0.1l0.1-0.2c0-0.1,0.1-0.1,0.1-0.2c0-0.1,0-0.1-0.1-0.2
        C139.8,156.9,139.1,156.1,138.7,155.1z"/>
      <path class="st1" d="M140.2,160.8c-0.7-0.8-1.2-1.5-1.6-1.9c-0.1-0.1-0.2-0.1-0.3,0l-0.1,0.1c-0.1,0-0.1,0.1-0.1,0.2
        c0,0.1,0,0.1,0.1,0.2l0.9,1.1c-0.1,0-0.3,0-0.5,0c-1.2,0.1-2.2,0.1-2.8,0.1c0.7-0.9,1.3-1.7,1.8-2.5c0-0.1,0.1-0.1,0-0.2
        c0-0.1-0.1-0.1-0.1-0.2l-0.2-0.1c-0.1-0.1-0.3,0-0.3,0.1c-0.6,1-1.3,2-2.1,2.7c-0.3,0.2-0.3,0.4-0.2,0.5c0,0.1,0,0.1,0.1,0.2
        c0.1,0.1,0.3,0.1,0.6,0.1c1,0,2.2-0.1,3.7-0.2c0.2,0,0.4,0,0.5,0c0.1,0.2,0.2,0.3,0.4,0.5h0c0.1,0.1,0.1,0.1,0.2,0.1
        c0.1,0,0.1,0,0.2-0.1l0.2-0.1c0.1-0.1,0.1-0.3,0-0.4C140.4,161,140.3,160.9,140.2,160.8z"/>
      <path class="st1" d="M148,160v-1.9c0-0.3-0.1-0.4-0.4-0.4l-3.3,0c-0.2,0-0.4,0.2-0.4,0.4v1.9c0,0.2,0.2,0.4,0.4,0.4h3.3
        C147.9,160.4,148,160.3,148,160z M147.3,159.7h-2.7c0,0,0,0,0,0l0-1.3c0,0,0,0,0,0l2.7,0L147.3,159.7z"/>
      <path class="st1" d="M149.5,154.9h-5.8v0.7l5.6,0l0,5c0,0.2,0,0.3-0.1,0.4c-0.1,0.1-0.2,0.1-0.4,0.1h-1.2v0.7h0.1
        c0.6,0,1,0,1.2,0c0.5,0,1.1-0.2,1.1-1.2v-5.1C150,155.1,149.9,154.9,149.5,154.9z"/>
      <rect x="143.3" y="156.3" class="st1" width="5.5" height="0.7"/>
      <path class="st1" d="M38.5,155.7l-2.2,0c0,0,0-0.1,0-0.1c-0.1-0.1-0.2-0.4-0.3-0.6l-0.1-0.2c-0.1-0.1-0.2-0.2-0.4-0.1l-0.1,0.1
        c-0.1,0-0.1,0.1-0.1,0.2c0,0.1,0,0.2,0,0.2c0.1,0.1,0.2,0.3,0.3,0.5l-2.5,0c-0.2,0-0.4,0.2-0.4,0.4v1.5c0,1.5-0.3,2.7-0.9,3.5
        c0,0.1-0.1,0.1-0.1,0.2c0,0.1,0,0.1,0.1,0.2l0.1,0.1c0.1,0,0.1,0.1,0.2,0.1c0,0,0,0,0,0c0.1,0,0.1-0.1,0.2-0.1
        c0.7-0.9,1-2.3,1-3.9l0-1.3h5.2c0.2,0,0.3-0.1,0.3-0.3V156C38.8,155.8,38.7,155.7,38.5,155.7z"/>
      <path class="st1" d="M41.6,158.8c0,0,0.1,0,0.1,0c0.1,0,0.1-0.1,0.1-0.2l0.4-1.4c0-0.1,0-0.2,0-0.2c0-0.1-0.1-0.1-0.2-0.1l-0.1,0
        c-0.2,0-0.3,0.1-0.3,0.2c-0.1,0.2-0.1,0.4-0.2,0.5c-0.1,0.2-0.1,0.5-0.3,0.9c0,0.1,0,0.3,0.2,0.3l0.1,0
        C41.5,158.8,41.5,158.8,41.6,158.8z"/>
      <path class="st1" d="M47.6,155h-0.1c-0.2,0-0.3,0.1-0.3,0.3v6.1c0,0.2,0.1,0.3,0.3,0.3h0.1c0.2,0,0.3-0.1,0.3-0.3v-6.1
        C47.9,155.1,47.8,155,47.6,155z"/>
      <path class="st1" d="M44.3,157.4c-0.1-0.2-0.1-0.3-0.2-0.4c0-0.1-0.1-0.1-0.2-0.2c-0.1,0-0.2,0-0.2,0l-0.1,0
        c-0.1,0.1-0.2,0.2-0.2,0.4l0.1,0.3c0.1,0.4,0.2,0.6,0.3,0.9c0,0.1,0.1,0.1,0.2,0.2c0,0,0.1,0,0.1,0c0,0,0.1,0,0.1,0l0.1-0.1
        c0.1-0.1,0.2-0.2,0.1-0.4C44.5,157.9,44.4,157.7,44.3,157.4z"/>
      <path class="st1" d="M42.9,154.8L42.9,154.8c-0.3,0-0.4,0.1-0.4,0.3v1.9c0,1.2-0.1,2.1-0.2,2.7c-0.1,0.5-0.4,1-0.8,1.5
        c-0.1,0.1-0.1,0.1-0.1,0.2c0,0.1,0,0.1,0.1,0.2l0.1,0.1c0.1,0,0.1,0.1,0.2,0.1c0,0,0,0,0,0c0.1,0,0.1,0,0.2-0.1
        c0.5-0.6,0.8-1.2,0.9-1.7c0.2-0.6,0.2-1.6,0.2-2.9v-1.9C43.2,154.9,43.1,154.8,42.9,154.8z"/>
      <path class="st1" d="M45.3,154.9L45.3,154.9c-0.3,0-0.4,0.1-0.4,0.3v6.1c0,0.2,0.1,0.3,0.3,0.3h0.1c0.2,0,0.3-0.1,0.3-0.3v-6.1
        C45.6,155,45.4,154.9,45.3,154.9z"/>
      <path class="st1" d="M46.6,157.2c0-0.1-0.1-0.2-0.1-0.2c-0.1-0.1-0.2-0.2-0.4-0.2l-0.1,0c-0.1,0-0.1,0.1-0.2,0.2
        c0,0.1,0,0.2,0,0.2c0,0.1,0.1,0.2,0.1,0.3c0.2,0.4,0.3,0.6,0.3,0.8c0,0.1,0.1,0.1,0.2,0.2c0,0,0.1,0,0.1,0c0,0,0.1,0,0.1,0
        l0.1-0.1c0.1-0.1,0.2-0.2,0.1-0.4C46.9,157.9,46.7,157.6,46.6,157.2z"/>
    </g>
  </g>
</g>
</svg>
