<svg version="1.1" id="图层_1" xmlns="http://www.w3.org/2000/svg" xmlns:xlink="http://www.w3.org/1999/xlink" x="0" y="0" viewBox="0 0 173 185" xml:space="preserve" enable-background="new 0 0 173 185"><style type="text/css">.st0{fill:#2b2b2b}.st1,.st2{fill:#282828}.st2{fill-rule:evenodd;clip-rule:evenodd}</style><polygon class="st0" points="104.4,119.3 128.1,119.3 116.2,98.9"/><polygon class="st1" points="137.8,61.7 116.2,98.9 128.1,119.3 171.2,119.3"/><polygon class="st1" points="64.8,10.2 1.6,119.3 104.4,119.3 116.2,98.9"/><ellipse class="st2" cx="145.5" cy="14.9" rx="14.7" ry="14.6"/><path class="st1" d="M23.5,151.7l0,19.8c0,6.8-1.4,10.6-4.3,11.7l0.4,1.6c4.1-0.7,7.1-2.5,9-5.4l0,0c1.1-1.5,1.6-4.5,1.5-9l0-1 l0-17.6H23.5z"/><path class="st1" d="M2.4,179.3L2.4,179.3c1.9,2.9,4.9,4.7,9,5.4l0.4-1.6c-2.9-1.1-4.3-4.9-4.3-11.7l0-19.8H0.9l0,18.6 C0.8,174.8,1.3,177.8,2.4,179.3z"/><rect x="121.2" y="151.9" class="st1" width="3.6" height="17.5"/><path class="st1" d="M164,164.5c2,2.2,3.5,3.8,4.5,4.9h2v-17.5h-1.7v12.7l-0.4-0.4c-1.7-1.9-4.3-4.7-7.6-8.2 c-1.7-1.8-2.9-3.1-3.8-4.1h-2.3v17.5h1.6v-13l3.3,3.4C160.6,160.8,162,162.4,164,164.5z"/><path class="st1" d="M72.5,161.8c0.6,1,1.2,1.9,1.7,2.8l2.8,4.9h4l-0.7-1.1c-1.4-2.1-2.8-4.3-4.1-6.5l-0.1-0.3l0.3-0.1 c2.2-0.5,3.7-2.4,3.7-4.7v-0.1c0-2.6-2.2-4.8-4.8-4.8h-7.2v17.5h4v-7.8h0.5L72.5,161.8z M71.9,152.8h0.9c1.9,0,3.5,1.8,3.5,4 c0,2.2-1.6,4-3.5,4h-0.9V152.8z"/><path class="st1" d="M49.3,156.8v-0.1c0-2.6-2.2-4.8-4.8-4.8h-7.2v17.5h4v-7.8h3.2C47.2,161.6,49.3,159.5,49.3,156.8z M42.2,160.8 h-0.9v-8.1h0.9c1.9,0,3.5,1.8,3.5,4C45.7,159,44.2,160.8,42.2,160.8z"/><path class="st1" d="M140,151.7l-0.1,0l-0.1,0c-6.1,0.1-9.5,3.4-9.5,9.1c0,5.8,3.4,9,9.6,9.1l0.1,0l0.1,0c6.1-0.1,9.5-3.4,9.5-9.1 C149.5,155.1,146.1,151.9,140,151.7z M139.8,168.9L139.8,168.9L139.8,168.9c-3.5-0.2-5.5-2.7-5.8-7.5c0-0.2,0-0.3,0-0.5v-0.1 c0-0.2,0-0.3,0-0.5c0.3-4.8,2.2-7.4,5.7-7.5l0,0l0,0c3.5,0.2,5.4,2.7,5.7,7.5c0,0.1,0,0.2,0,0.2c0,0.1,0,0.2,0,0.3 c0,0.1,0,0.2,0,0.3c0,0.1,0,0.1,0,0.2C145.3,166.2,143.3,168.7,139.8,168.9z"/><polygon class="st1" points="95.3,164.3 97.2,169.5 101.4,169.5 94,151.6 92.2,151.6 84.5,169.5 86.7,169.5 88.4,165.3 92.7,165.3 92.7,163.7 89,163.7 92.1,156"/><polygon class="st1" points="63.4,169.4 63.4,167.6 57.7,167.6 57.7,161.1 62.5,161 62.5,159.2 57.7,159.2 57.7,153.8 63.4,153.7 63.4,151.9 53.6,151.9 53.6,169.4 57.7,169.4 57.9,169.4"/><polygon class="st1" points="116.6,151.9 103.3,151.9 103.3,153.7 108,153.7 108,169.4 112,169.4 112,153.7 116.6,153.7"/><path class="st1" d="M75.3,180.1h-2.8c-0.1-0.2-0.1-0.3-0.1-0.5c0-0.1-0.1-0.1-0.1-0.2c0,0,0,0,0,0h2.3c0.3,0,0.4-0.2,0.4-0.5 l0-1.3c0-0.2-0.2-0.4-0.5-0.4l-2.4,0c0,0,0,0,0,0c0-0.1-0.1-0.2-0.2-0.3c-0.1-0.1-0.1-0.3-0.2-0.4c-0.1-0.1-0.2-0.2-0.4-0.2 l-0.2,0.1c-0.1,0-0.1,0.1-0.2,0.2c0,0.1,0,0.2,0,0.2c0.1,0.1,0.1,0.3,0.2,0.4l-2.9,0c-0.2,0-0.4,0.2-0.4,0.4v2.7 c0,1-0.1,1.7-0.2,2.2c-0.1,0.4-0.3,0.9-0.6,1.4c-0.1,0.1-0.1,0.3,0.1,0.4l0.2,0.2c0.1,0.1,0.1,0.1,0.2,0.1c0.1,0,0.2-0.1,0.2-0.1 c0.4-0.5,0.6-1.1,0.7-1.6c0.1-0.5,0.2-1.2,0.2-2.1c0,0.1,0.1,0.2,0.3,0.2h1.3c0,0.9-0.1,1.5-0.3,1.9c-0.2,0.4-0.6,0.8-1.3,1.3 c-0.1,0-0.1,0.1-0.1,0.2c0,0.1,0,0.2,0.1,0.2l0.2,0.2c0.1,0.1,0.1,0.1,0.2,0.1c0.1,0,0.1,0,0.2,0c1.1-0.7,1.7-1.5,1.9-2.5l2.8,0 c0,0,0,0,0,0c0,0.1,0,0.2,0,0.5l0,0.3c0,0.3-0.1,0.5-0.2,0.6c-0.1,0.1-0.3,0.2-0.6,0.1h-1.1c-0.1,0-0.2,0-0.2,0.1 c-0.1,0.1-0.1,0.2-0.1,0.2l0.1,0.2c0,0.1,0.1,0.2,0.3,0.2H73c0.9,0,1.4-0.5,1.5-1.4c0-0.1,0-0.4,0.1-0.8c0-0.2,0-0.3,0-0.4 c0-0.3-0.2-0.4-0.5-0.5H71l0-0.2c0-0.2,0-0.3,0-0.4h4.3c0.2,0,0.3-0.1,0.3-0.3v-0.2C75.6,180.2,75.5,180.1,75.3,180.1z M74.1,178 C74.2,178,74.2,178,74.1,178l0.1,0.7h-5.5V178H74.1z M68.7,177.9L68.7,177.9L68.7,177.9C68.7,177.9,68.7,177.9,68.7,177.9z M68.7,180.3v-0.9H72l-0.1,0c-0.1,0-0.1,0.1-0.2,0.1c0,0.1,0,0.2,0,0.2c0,0,0,0.1,0.1,0.2c0,0.1,0,0.1,0,0.1H69 C68.9,180.1,68.8,180.2,68.7,180.3z"/><path class="st1" d="M85.7,179.5H82v-1.2h3.2c0.2,0,0.3-0.1,0.3-0.3v-0.2c0-0.2-0.1-0.3-0.3-0.3H82v-0.8c0-0.2-0.1-0.3-0.3-0.3 h-0.2c-0.2,0-0.3,0.1-0.3,0.3v2.8h-3c-0.2,0-0.3,0.1-0.3,0.3v0.2c0,0.2,0.1,0.3,0.3,0.3h7.6c0.2,0,0.3-0.1,0.3-0.3v-0.2 C86,179.6,85.9,179.5,85.7,179.5z"/><path class="st1" d="M85.2,182.5c-0.3-0.2-0.9-0.4-1.5-0.7c-0.6-0.3-1.5-0.8-1.8-0.9c0,0-0.1,0-0.1,0c0,0,0,0-0.1,0h-0.2 c-0.2,0-0.3,0.1-0.3,0.3v3.3c0,0.2,0.1,0.3,0.3,0.3h0.2c0.2,0,0.3-0.1,0.3-0.3v-2.6c0.7,0.3,1.8,0.9,2.9,1.4 c0.1,0.1,0.3,0,0.4-0.1l0.1-0.2c0-0.1,0.1-0.2,0-0.2C85.4,182.6,85.3,182.5,85.2,182.5z"/><path class="st1" d="M58.8,183.3c0.1,0.1,0.1,0.1,0.2,0.1c0.1,0,0.1,0,0.2-0.1l0.2-0.2c0.1,0,0.1-0.1,0.1-0.2 c0-0.1,0-0.2-0.1-0.2c-0.1-0.1-0.2-0.2-0.4-0.4l-0.4-0.4c-0.1-0.1-0.3-0.1-0.4,0l-0.2,0.1c-0.1,0-0.1,0.1-0.1,0.2 c0,0.1,0,0.2,0.1,0.2c0.1,0.1,0.1,0.2,0.2,0.3C58.5,183,58.7,183.2,58.8,183.3z"/><path class="st1" d="M64.7,178.8c-1.5-0.6-2.6-1.3-3.4-2.3c-0.1-0.1-0.1-0.1-0.2-0.1h-0.6c-0.1,0-0.2,0-0.2,0.1 c-0.8,0.9-1.9,1.7-3.4,2.4c-0.1,0-0.1,0.1-0.2,0.2c0,0.1,0,0.2,0,0.2l0.1,0.2c0.1,0.1,0.2,0.2,0.4,0.1c0.3-0.1,0.5-0.3,0.8-0.4 c0,0,0,0,0,0v0.2c0,0.2,0.1,0.3,0.3,0.3h4.8c0.2,0,0.3-0.1,0.3-0.3v-0.2c0-0.1,0-0.1-0.1-0.2c0.3,0.2,0.6,0.3,1,0.4 c0.1,0.1,0.3,0,0.4-0.1l0.1-0.2c0-0.1,0-0.2,0-0.2C64.8,178.9,64.7,178.8,64.7,178.8z M60.8,177.2c0.6,0.7,1.4,1.4,2.4,1.9 c0,0,0,0,0,0h-4.7C59.5,178.4,60.2,177.8,60.8,177.2z"/><path class="st1" d="M63,181.9c-0.2,0.2-0.5,0.5-0.8,0.8v0c-0.1,0.1-0.1,0.1-0.1,0.2c0,0.1,0,0.2,0.1,0.2l0.2,0.1 c0.1,0,0.1,0.1,0.2,0.1c0.1,0,0.1,0,0.2-0.1c0.1-0.1,0.3-0.2,0.5-0.4l0.4-0.4c0.1-0.1,0.1-0.1,0.1-0.2c0-0.1,0-0.2-0.1-0.2 l-0.2-0.1C63.3,181.8,63.1,181.8,63,181.9z"/><path class="st1" d="M64.5,183.6h-3.3v-2h2.7c0.2,0,0.3-0.1,0.3-0.3v-0.2c0-0.2-0.1-0.3-0.3-0.3h-2.7v-0.4c0-0.2-0.1-0.3-0.3-0.3 h-0.2c-0.2,0-0.3,0.1-0.3,0.3v0.4h-2.7c-0.2,0-0.3,0.1-0.3,0.3v0.2c0,0.2,0.1,0.3,0.3,0.3h2.7v2h-3.2c-0.2,0-0.3,0.1-0.3,0.3v0.2 c0,0.2,0.1,0.3,0.3,0.3h7.3c0.2,0,0.3-0.1,0.3-0.3v-0.2C64.8,183.8,64.6,183.6,64.5,183.6z"/><path class="st1" d="M91.3,180.5c0,0.2,0.1,0.3,0.3,0.3h4.3c0.2,0,0.3-0.1,0.3-0.3v-0.2c0-0.2-0.1-0.3-0.3-0.3h-4.3 c-0.2,0-0.3,0.1-0.3,0.3V180.5z"/><path class="st1" d="M95.8,181.4L95.8,181.4h-4.2c-0.3,0-0.4,0.2-0.5,0.5l0,1.8c0,0.3,0.2,0.5,0.5,0.5l4.2,0 c0.3,0,0.4-0.2,0.5-0.5l0-1.8C96.3,181.6,96.1,181.4,95.8,181.4z M95.5,183.5C95.5,183.5,95.5,183.5,95.5,183.5l-3.6,0 c-0.1,0-0.1,0-0.1,0v-1.3c0,0,0,0,0.1,0h3.4c0.1,0,0.2,0.1,0.2,0.2L95.5,183.5z"/><path class="st1" d="M91.6,179.4h4.3c0.2,0,0.3-0.1,0.3-0.3V179c0-0.2-0.1-0.3-0.3-0.3h-4.3c-0.2,0-0.3,0.1-0.3,0.3v0.1 C91.3,179.3,91.4,179.4,91.6,179.4z"/><path class="st1" d="M90.9,176.8c0-0.1,0-0.2,0-0.2c0-0.1-0.1-0.1-0.2-0.1l-0.2,0c-0.2,0-0.3,0.1-0.4,0.2c-0.4,1.3-1,2.5-1.7,3.5 c0,0.1-0.1,0.1-0.1,0.2c0,0.1,0.1,0.1,0.1,0.2l0.2,0.1c0.1,0,0.2,0.1,0.2,0c0.1,0,0.1-0.1,0.2-0.1c0.1-0.2,0.2-0.4,0.3-0.5v4.2 c0,0.2,0.1,0.3,0.3,0.3h0.2c0.2,0,0.3-0.1,0.3-0.3l0-5.6C90.5,178,90.7,177.4,90.9,176.8z"/><path class="st1" d="M96.3,177.3h-2.4l0,0c0.1,0,0.1-0.1,0.2-0.2c0-0.1,0-0.2,0-0.2c-0.1-0.1-0.1-0.2-0.2-0.3 c-0.1-0.1-0.3-0.2-0.4-0.1l-0.2,0.1c-0.1,0-0.1,0.1-0.2,0.2c0,0.1,0,0.2,0,0.2c0,0.1,0.1,0.2,0.1,0.3l0.1,0.2h-2.3 c-0.2,0-0.3,0.1-0.3,0.3v0.2c0,0.2,0.1,0.3,0.3,0.3h5.2c0.2,0,0.3-0.1,0.3-0.3v-0.2C96.6,177.5,96.5,177.3,96.3,177.3z"/><path class="st1" d="M106.1,180.9l0-3.3c0-0.2-0.1-0.4-0.6-0.5h-2.7c0-0.1,0.1-0.2,0.1-0.3v0c0-0.1,0-0.2,0-0.2 c0-0.1-0.1-0.1-0.2-0.1l-0.2,0c-0.1,0-0.3,0.1-0.3,0.2c0,0.1-0.1,0.2-0.1,0.4c0,0,0,0.1,0,0.1l-1.6,0c-0.3,0-0.5,0.2-0.5,0.5v3.3 l0,0c0.1,0.3,0.2,0.4,0.5,0.5l0,0l5,0C105.8,181.4,106,181.2,106.1,180.9z M100.8,178.3v-0.4c0-0.1,0.1-0.1,0.1-0.1h4.4v0.5 H100.8z M105.3,180.7l-4.5,0c0,0,0,0,0,0v-0.5h4.5V180.7z M100.8,179.5V179h4.5v0.5H100.8z"/><path class="st1" d="M106.4,182c0,0-0.1-0.1-0.1-0.1l-0.1-0.1l-0.3,0.3c-0.1,0.1-0.1,0.1-0.1,0.2c0,0.1,0,0.2,0.1,0.2 c0.3,0.3,0.5,0.6,0.7,0.8c0,0.1,0.1,0.1,0.2,0.1c0,0,0,0,0,0c0.1,0,0.1,0,0.2-0.1l0.1-0.1c0.1-0.1,0.1-0.1,0.1-0.2 c0-0.1,0-0.2-0.1-0.2L106.4,182z"/><path class="st1" d="M103.4,182.9c0.1,0,0.1,0,0.2-0.1l0.2-0.1c0.1-0.1,0.1-0.1,0.1-0.2c0-0.1,0-0.2-0.1-0.2l-0.2-0.2 c-0.2-0.2-0.3-0.4-0.5-0.5c-0.1-0.1-0.3-0.1-0.4,0l-0.1,0.1c-0.1,0.1-0.1,0.1-0.1,0.2c0,0.1,0,0.2,0.1,0.2 c0.2,0.2,0.4,0.4,0.6,0.6C103.2,182.8,103.3,182.9,103.4,182.9z"/><path class="st1" d="M105.3,182.6l-0.2-0.1c-0.1,0-0.2,0-0.3,0c-0.1,0-0.1,0.1-0.1,0.2c0,0.2-0.1,0.3-0.1,0.5 c0,0.2-0.2,0.4-0.7,0.4l-1.8,0c-0.2,0-0.4,0-0.5-0.1c-0.1-0.1-0.1-0.2-0.1-0.4v-0.9c0-0.2-0.1-0.3-0.3-0.3h-0.2 c-0.2,0-0.3,0.1-0.3,0.3l0,0.9c0,0.4,0.1,0.8,0.3,1c0.2,0.2,0.5,0.3,0.8,0.3c0,0,0.1,0,0.1,0l1.9,0c1,0,1.3-0.5,1.4-0.9 c0.1-0.2,0.1-0.4,0.1-0.6C105.5,182.7,105.5,182.6,105.3,182.6z"/><path class="st1" d="M100,182.1l-0.2-0.1c-0.1,0-0.2,0-0.2,0c-0.1,0-0.1,0.1-0.2,0.2c-0.1,0.3-0.3,0.7-0.5,1.1v0 c-0.1,0.1,0,0.3,0.1,0.4l0.2,0.1c0,0,0.1,0,0.1,0c0,0,0.1,0,0.1,0c0.1,0,0.1-0.1,0.2-0.2c0.2-0.5,0.4-0.8,0.5-1.1 C100.3,182.3,100.2,182.1,100,182.1z"/><path class="st1" d="M114.7,178.7L114.7,178.7c0.1,0,0.1,0.1,0.2,0.1c0.1,0,0.2,0,0.2-0.1l0.1-0.1c0.1-0.1,0.1-0.1,0.1-0.2 c0-0.1,0-0.2-0.1-0.2l-0.9-0.7c-0.1-0.1-0.3-0.1-0.4,0l-0.1,0.1c-0.1,0.1-0.1,0.1-0.1,0.2c0,0.1,0,0.2,0.1,0.2 C114.1,178.2,114.4,178.4,114.7,178.7z"/><path class="st1" d="M114.2,180.6L114.2,180.6c0.1,0.1,0.1,0.1,0.2,0.1c0.1,0,0.2,0,0.2-0.1l0.1-0.1c0.1-0.1,0.1-0.1,0.1-0.2 c0-0.1,0-0.2-0.1-0.2c-0.3-0.2-0.6-0.5-0.9-0.7c-0.1-0.1-0.3-0.1-0.4,0l-0.1,0.1c-0.1,0.1-0.1,0.1-0.1,0.2c0,0.1,0,0.2,0.1,0.2 C113.6,180.1,113.9,180.4,114.2,180.6z"/><path class="st1" d="M117.6,181.3c-0.1-0.1-0.1-0.1-0.2-0.1l-0.8,0.1v-4.6c0-0.2-0.1-0.3-0.3-0.3h-0.2c-0.2,0-0.3,0.1-0.3,0.3 v4.6l-2.8,0.2c-0.2,0-0.3,0.2-0.3,0.3l0,0.2c0,0.1,0,0.2,0.1,0.2c0.1,0.1,0.1,0.1,0.2,0.1l2.7-0.2v2c0,0.2,0.1,0.3,0.3,0.3h0.2 c0.2,0,0.3-0.1,0.3-0.3v-2l0.9-0.1c0.2,0,0.3-0.2,0.3-0.3l0-0.1C117.7,181.4,117.6,181.3,117.6,181.3z"/><path class="st1" d="M112.9,180.9c0-0.1,0-0.2-0.1-0.2l-0.6-0.6c-0.1-0.1-0.3-0.1-0.4,0v-0.7h0.8c0.2,0,0.3-0.1,0.3-0.3V179 c0-0.2-0.1-0.3-0.3-0.3h-0.8v-1.2c0.3,0,0.5-0.1,0.8-0.1c0.1,0,0.2,0,0.2-0.1c0.1-0.1,0.1-0.2,0.1-0.2l0-0.2 c0-0.1-0.2-0.2-0.3-0.2c-0.9,0.1-1.7,0.2-2.2,0.2c-0.1,0-0.2,0-0.2,0.1c-0.1,0.1-0.1,0.2-0.1,0.2l0,0.2c0,0.2,0.2,0.3,0.3,0.3 c0.1,0,0.2,0,0.4,0c0.1,0,0.3,0,0.4,0v1.1h-0.9c-0.2,0-0.3,0.1-0.3,0.3v0.1c0,0.2,0.1,0.3,0.3,0.3h0.9c-0.3,1-0.8,1.8-1.3,2.6 c-0.1,0.1-0.1,0.3,0.1,0.4l0.1,0.1c0.1,0,0.2,0.1,0.2,0.1c0.1,0,0.2-0.1,0.2-0.1c0.3-0.4,0.5-0.9,0.7-1.4v2.9 c0,0.2,0.1,0.3,0.3,0.3h0.2c0.2,0,0.3-0.1,0.3-0.3v-3.2c0.1,0,0.1,0.1,0.2,0.2l0.3,0.3c0.1,0.1,0.3,0.1,0.4,0l0.1-0.1 C112.8,181.1,112.9,181,112.9,180.9z"/><path class="st1" d="M127.9,177.6h-1.9v-0.9c0-0.2-0.1-0.3-0.3-0.3h-0.2c-0.2,0-0.3,0.1-0.3,0.3v0.9h-1.7c-0.2,0-0.3,0.1-0.3,0.3 v0.2c0,0.2,0.1,0.3,0.3,0.3h1.7v1.1h-1.6c-0.2,0-0.3,0.1-0.3,0.3v0.1l0.3,0.3c0.4,1.1,0.8,2,1.4,2.5c-0.4,0.3-1.2,0.6-2.1,1 c-0.1,0-0.1,0.1-0.2,0.2c0,0.1,0,0.2,0,0.2l0.1,0.2c0.1,0.1,0.2,0.1,0.3,0.1c0,0,0.1,0,0.1,0c1-0.4,1.8-0.8,2.4-1.2 c0.5,0.4,1.2,0.8,2,1.1c0.1,0.1,0.3,0,0.4-0.1l0.1-0.2c0.1-0.1,0.1-0.2,0-0.3c0-0.1-0.1-0.2-0.2-0.2c-0.8-0.3-1.4-0.6-1.8-0.9 c0.7-0.7,1.2-1.5,1.5-2.5c0.1-0.1,0.1-0.3,0-0.4c0-0.1-0.1-0.1-0.1-0.2c-0.1-0.1-0.2-0.1-0.4-0.1h-1.3v-1.1h1.9 c0.2,0,0.3-0.1,0.3-0.3v-0.2C128.2,177.7,128.1,177.6,127.9,177.6z M127,180.2c-0.4,0.9-0.8,1.5-1.3,2c-0.5-0.5-0.8-1.2-1.1-2 L127,180.2z"/><path class="st1" d="M123,180.4v-0.2c0-0.1,0-0.2-0.1-0.2c-0.1-0.1-0.2-0.1-0.3,0c-0.2,0.1-0.3,0.1-0.4,0.1c-0.1,0-0.1,0-0.2,0 v-1.5h0.6c0.2,0,0.3-0.1,0.3-0.3v-0.1c0-0.2-0.1-0.3-0.3-0.3h-0.6v-1.2c0-0.2-0.1-0.3-0.3-0.3h-0.2c-0.2,0-0.3,0.1-0.3,0.3v1.2 h-0.8c-0.2,0-0.3,0.1-0.3,0.3v0.1c0,0.2,0.1,0.3,0.3,0.3h0.8v1.7c-0.1,0-0.3,0.1-0.4,0.1c-0.2,0-0.3,0.1-0.4,0.1 c-0.2,0-0.2,0.2-0.2,0.3l0,0.2c0,0.1,0.1,0.2,0.1,0.2c0.1,0,0.2,0.1,0.2,0c0.2-0.1,0.5-0.1,0.7-0.2l0,2.2c0,0.1,0,0.3-0.1,0.3 c0,0-0.1,0.1-0.3,0.1c-0.1,0-0.2,0-0.3,0c-0.1,0-0.2,0-0.2,0.1c-0.1,0.1-0.1,0.2-0.1,0.2l0,0.2c0,0.1,0.1,0.3,0.3,0.3h0.4 c0.3,0,0.6-0.1,0.7-0.3c0.2-0.2,0.3-0.5,0.3-0.9v-2.4c0.3-0.1,0.5-0.1,0.7-0.2C122.9,180.6,123,180.5,123,180.4z"/><path class="st1" d="M138.5,177.3h-4c0-0.1,0.1-0.2,0.1-0.2c0.1-0.1,0.1-0.2,0.1-0.2c0-0.1,0-0.2,0-0.2c0-0.1-0.1-0.1-0.2-0.2 l-0.2-0.1c-0.1-0.1-0.3,0-0.4,0.2c-0.1,0.3-0.3,0.5-0.4,0.8h-2.3c-0.2,0-0.3,0.1-0.3,0.3v0.1c0,0.2,0.1,0.3,0.3,0.3h1.8 c-0.7,1-1.4,1.9-2.3,2.6c-0.1,0.1-0.1,0.1-0.1,0.2c0,0.1,0,0.2,0.1,0.2l0.1,0.1c0.1,0.1,0.1,0.1,0.2,0.1c0.1,0,0.2,0,0.2-0.1 c0.3-0.3,0.7-0.6,0.9-0.9v3.7c0,0.2,0.1,0.3,0.3,0.3h0.2c0.2,0,0.3-0.1,0.3-0.3v-1.5h4l0,0.6c0,0.2,0,0.3-0.1,0.3 c-0.1,0.1-0.2,0.1-0.4,0.1h-0.9c-0.1,0-0.2,0-0.2,0.1c-0.1,0.1-0.1,0.2,0,0.3l0.1,0.2c0,0.1,0.2,0.2,0.3,0.2c0,0,0,0,0,0 c0.4,0,0.8,0,0.9,0c0.4,0,0.7-0.1,0.9-0.3c0.2-0.2,0.3-0.5,0.3-0.8l0-3.9c0-0.2-0.2-0.4-0.5-0.4h-3.9c0.2-0.3,0.3-0.5,0.5-0.8 h4.4c0.2,0,0.3-0.1,0.3-0.3v-0.1C138.8,177.5,138.7,177.3,138.5,177.3z M137.1,179.6C137.1,179.6,137.2,179.6,137.1,179.6 l0.1,0.8h-4v-0.8H137.1z M133.2,179.6L133.2,179.6L133.2,179.6C133.2,179.6,133.2,179.6,133.2,179.6z M137.2,181.1v0.8h-4v-0.8 H137.2z"/><path class="st1" d="M143.4,179.4l0.6-1.9c0-0.1,0.1-0.2,0.1-0.3c0-0.1,0-0.3-0.1-0.4c-0.1-0.1-0.2-0.2-0.4-0.2l-1.7,0 c-0.3,0-0.4,0.2-0.4,0.5v7c0,0.2,0.1,0.3,0.3,0.3h0.2c0.2,0,0.3-0.1,0.3-0.3l0-6.7h1l-0.6,1.9c-0.1,0.3,0,0.5,0.1,0.7 c0.4,0.5,0.6,1.1,0.6,1.6c0,0.6-0.2,0.7-0.4,0.7h-0.3c-0.1,0-0.2,0-0.2,0.1c-0.1,0.1-0.1,0.2-0.1,0.2l0,0.1 c0,0.1,0.1,0.2,0.3,0.2l0,0c0.2,0,0.3,0,0.4,0c0.5,0,1-0.3,1-1.4C144.2,181,144,180.3,143.4,179.4 C143.4,179.5,143.4,179.5,143.4,179.4z"/><path class="st1" d="M149.1,183.5c-0.6-0.3-1.1-0.7-1.5-1.1c0.1-0.1,0.3-0.2,0.6-0.3c0.4-0.2,0.6-0.4,0.8-0.5 c0.1,0,0.1-0.1,0.1-0.2c0-0.1,0-0.2-0.1-0.2l-0.1-0.2c-0.1-0.1-0.3-0.2-0.4-0.1c-0.5,0.4-1,0.7-1.3,0.9c-0.2-0.3-0.4-0.7-0.5-1.2 l1.5,0c0.3,0,0.4-0.2,0.4-0.5l0-3.2c0-0.3-0.2-0.4-0.5-0.4H145c-0.3,0-0.4,0.2-0.4,0.5v6.3c0,0.3,0,0.5,0.1,0.7 c0.1,0.2,0.3,0.3,0.8,0.1l1.1-0.5c0.1-0.1,0.2-0.2,0.1-0.3l-0.1-0.2c0-0.1-0.1-0.2-0.2-0.2c-0.1,0-0.2,0-0.3,0 c-0.3,0.2-0.6,0.3-0.9,0.5v-2.6h0.6c0.4,1.6,1.4,2.8,2.8,3.5c0,0,0.1,0,0.1,0c0.1,0,0.2-0.1,0.3-0.1l0.1-0.2c0-0.1,0.1-0.1,0-0.2 C149.2,183.6,149.2,183.6,149.1,183.5z M147.9,179v1h-2.5v-1H147.9z M147.8,177.3C147.8,177.3,147.9,177.4,147.8,177.3l0.1,1 h-2.5v-1H147.8z M145.3,177.3L145.3,177.3L145.3,177.3C145.3,177.3,145.3,177.3,145.3,177.3z"/><path class="st1" d="M155.2,177.3c0-0.1,0-0.2,0-0.2c0-0.1-0.1-0.1-0.2-0.2l-0.2-0.1c-0.1-0.1-0.3,0-0.4,0.1 c-0.6,1.2-1.4,2.2-2.4,3h0c-0.1,0.1-0.1,0.1-0.1,0.2c0,0.1,0,0.2,0.1,0.2l0.2,0.2c0.1,0.1,0.1,0.1,0.2,0.1c0.1,0,0.1,0,0.2-0.1 C153.7,179.6,154.6,178.5,155.2,177.3z"/><path class="st1" d="M157.4,176.8c-0.1-0.1-0.2-0.2-0.4-0.2l-0.2,0.1c-0.1,0-0.1,0.1-0.2,0.2c0,0.1,0,0.2,0,0.2 c0.5,1.3,1.4,2.3,2.5,3.2c0.1,0,0.1,0.1,0.2,0.1c0.1,0,0.2,0,0.2-0.1l0.2-0.2c0.1-0.1,0.1-0.1,0.1-0.2c0-0.1-0.1-0.2-0.1-0.2 C158.7,178.9,157.9,178,157.4,176.8z"/><path class="st1" d="M159.2,183.4c-0.8-1-1.4-1.7-1.8-2.1c-0.1-0.1-0.3-0.1-0.4,0l-0.2,0.1c-0.1,0-0.1,0.1-0.1,0.2 c0,0.1,0,0.2,0.1,0.2l1,1.2c-0.2,0-0.4,0-0.6,0c-1.4,0.1-2.5,0.1-3.2,0.1c0.8-1,1.5-2,2-2.8c0-0.1,0.1-0.2,0-0.2 c0-0.1-0.1-0.2-0.2-0.2l-0.2-0.1c-0.1-0.1-0.3,0-0.4,0.1c-0.7,1.2-1.5,2.2-2.4,3.1c-0.3,0.3-0.3,0.5-0.3,0.6c0,0.1,0,0.1,0.1,0.2 c0.1,0.1,0.4,0.2,0.7,0.1c1.1,0,2.5-0.1,4.2-0.2c0.2,0,0.4,0,0.6,0c0.1,0.2,0.3,0.4,0.4,0.5h0c0.1,0.1,0.1,0.1,0.2,0.1 c0.1,0,0.1,0,0.2-0.1l0.2-0.2c0.1-0.1,0.1-0.3,0-0.4C159.3,183.6,159.3,183.5,159.2,183.4z"/><path class="st1" d="M168.1,182.5v-2.2c0-0.3-0.2-0.5-0.4-0.5l-3.8,0c-0.3,0-0.4,0.2-0.4,0.5v2.1c0,0.3,0.2,0.5,0.5,0.5h3.7 C167.9,182.9,168.1,182.8,168.1,182.5z M167.3,182.2h-3.1c0,0,0,0,0,0l0-1.5c0,0,0,0,0,0l3.1,0L167.3,182.2z"/><path class="st1" d="M169.8,176.6h-6.6v0.8l6.4,0l0,5.6c0,0.2,0,0.3-0.1,0.4c-0.1,0.1-0.3,0.1-0.5,0.1h-1.4v0.8h0.2 c0.7,0,1.1,0,1.4,0c0.6,0,1.3-0.2,1.3-1.4v-5.8C170.4,176.9,170.2,176.6,169.8,176.6z"/><rect x="162.7" y="178.3" class="st1" width="6.2" height=".8"/><path class="st1" d="M43.4,177.6l-2.5,0c0,0,0-0.1,0-0.1c-0.1-0.1-0.2-0.4-0.3-0.7l-0.1-0.2c-0.1-0.2-0.3-0.2-0.4-0.1l-0.2,0.1 c-0.1,0-0.1,0.1-0.2,0.2c0,0.1,0,0.2,0,0.3c0.1,0.1,0.2,0.4,0.3,0.6l-2.8,0c-0.3,0-0.4,0.2-0.4,0.5v1.7c0,1.7-0.3,3.1-1,4 c-0.1,0.1-0.1,0.2-0.1,0.2c0,0.1,0.1,0.2,0.1,0.2l0.2,0.1c0.1,0,0.1,0.1,0.2,0.1c0,0,0,0,0,0c0.1,0,0.2-0.1,0.2-0.1 c0.8-1.1,1.2-2.6,1.1-4.5l0-1.4h5.9c0.2,0,0.3-0.1,0.3-0.3v-0.1C43.7,177.7,43.6,177.6,43.4,177.6z"/><path class="st1" d="M46.8,181.1c0,0,0.1,0,0.1,0c0.1,0,0.1-0.1,0.2-0.2l0.5-1.6c0-0.1,0-0.2,0-0.2c0-0.1-0.1-0.1-0.2-0.1l-0.1,0 c-0.2,0-0.3,0.1-0.4,0.2c-0.1,0.2-0.1,0.4-0.2,0.6c-0.1,0.3-0.2,0.6-0.3,1c0,0.2,0,0.3,0.2,0.4l0.1,0 C46.8,181.1,46.8,181.1,46.8,181.1z"/><path class="st1" d="M53.7,176.8h-0.1c-0.2,0-0.3,0.1-0.3,0.3v6.9c0,0.2,0.2,0.3,0.4,0.3h0.1c0.2,0,0.3-0.1,0.3-0.3v-6.9 C54.1,176.9,53.9,176.8,53.7,176.8z"/><path class="st1" d="M49.9,179.5c-0.1-0.2-0.2-0.4-0.2-0.5c0-0.1-0.1-0.2-0.2-0.2c-0.1,0-0.2,0-0.3,0l-0.1,0 c-0.2,0.1-0.2,0.3-0.2,0.4l0.1,0.3c0.2,0.5,0.3,0.7,0.4,1c0,0.1,0.1,0.1,0.2,0.2c0,0,0.1,0,0.1,0c0,0,0.1,0,0.1,0l0.1-0.1 c0.2-0.1,0.2-0.3,0.2-0.4C50.2,180.1,50.1,179.8,49.9,179.5z"/><path class="st1" d="M48.4,176.5h-0.1c-0.2,0-0.3,0.1-0.3,0.3v2.1c0,1.4-0.1,2.4-0.3,3c-0.2,0.6-0.5,1.2-1,1.7 c-0.1,0.1-0.1,0.2-0.1,0.2c0,0.1,0,0.2,0.1,0.2l0.1,0.1c0.1,0,0.1,0.1,0.2,0.1c0,0,0,0,0,0c0.1,0,0.2-0.1,0.2-0.1 c0.5-0.7,0.9-1.3,1.1-2c0.2-0.7,0.3-1.8,0.3-3.3v-2.1C48.7,176.7,48.6,176.5,48.4,176.5z"/><path class="st1" d="M51,176.6h-0.1c-0.2,0-0.3,0.1-0.3,0.3v7c0,0.2,0.1,0.3,0.3,0.3H51c0.2,0,0.3-0.1,0.3-0.3v-7 C51.4,176.8,51.2,176.6,51,176.6z"/><path class="st1" d="M52.5,179.3c0-0.1-0.1-0.2-0.1-0.3c-0.1-0.2-0.3-0.2-0.4-0.2l-0.1,0c-0.1,0-0.2,0.1-0.2,0.2 c0,0.1,0,0.2,0,0.3c0,0.1,0.1,0.2,0.1,0.3c0.2,0.5,0.3,0.7,0.4,1c0,0.1,0.1,0.2,0.2,0.2c0,0,0.1,0,0.1,0c0,0,0.1,0,0.1,0l0.1-0.1 c0.2-0.1,0.2-0.3,0.2-0.4C52.9,180.1,52.7,179.7,52.5,179.3z"/></svg>