<svg t="1501145505385" class="icon" viewBox="0 0 1323 1024" version="1.1" xmlns="http://www.w3.org/2000/svg" p-id="3218" xmlns:xlink="http://www.w3.org/1999/xlink" width="258.398" height="200"><defs><style type="text/css"/></defs><path d="M1096.429268 611.902439H999.02439v102.4h97.404878v-102.4z m-19.980488 84.917073h-54.946341v-64.936585h54.946341v64.936585z m-641.87317 132.370732c-4.995122 2.497561-9.990244 4.995122-17.482927 4.995122h-149.853659c-14.985366 0-19.980488-7.492683-19.980487-19.980488v-87.414634h187.317073v-119.882927H212.292683v19.980488h199.804878v77.42439H244.760976v-44.956097H224.780488v157.346341c0 24.97561 12.487805 37.463415 37.463414 37.463415H424.585366c12.487805 0 22.478049-4.995122 29.970732-9.990244 7.492683-7.492683 12.487805-29.970732 14.985365-67.434147l-19.980487-7.492683c-4.995122 34.965854-9.990244 54.946341-14.985366 59.941464z m202.302439-724.292683c24.97561 0 44.956098-19.980488 44.956097-44.956098S661.853659 14.985366 636.878049 14.985366s-44.956098 19.980488-44.956098 44.956097 19.980488 44.956098 44.956098 44.956098z m204.8 611.902439l14.985366 14.985366c32.468293-19.980488 49.95122-52.44878 54.946341-94.907317h39.960976c0 32.468293-2.497561 49.95122-4.995122 57.443902-2.497561 7.492683-9.990244 12.487805-19.980488 12.487805l-17.482927-2.497561 4.995122 19.980488h17.482927c14.985366 0 24.97561-4.995122 32.468293-14.985366 4.995122-9.990244 9.990244-39.960976 9.990243-92.409756h-57.443902v-27.473171h-19.980488v27.473171H849.170732v17.482927h42.458536c-4.995122 37.463415-19.980488 64.936585-49.951219 82.419512z m267.239024 54.946341v-19.980487h-119.882927v-24.97561h-22.478048v24.97561h-119.882927v19.980487h99.902439c-22.478049 24.97561-57.443902 47.453659-102.4 64.936586l12.487805 19.980488c49.95122-22.478049 87.414634-49.95122 109.892683-84.917074h2.497561v92.409757h22.478048v-92.409757h2.497561c19.980488 29.970732 54.946341 57.443902 107.395122 82.419513l14.985366-17.482927c-47.453659-19.980488-82.419512-39.960976-102.4-64.936586h94.907317z m-586.926829-144.858536h114.887805v237.268293h22.478049v-169.834147c27.473171 14.985366 59.941463 34.965854 99.902439 59.941464l12.487804-19.980488c-37.463415-24.97561-74.926829-44.956098-112.390243-64.936586V624.390244h129.87317v-22.478049H521.990244v24.97561z m731.785366-182.321951H69.931707c-27.473171 0-49.95122 22.478049-49.951219 49.951219v462.048781c0 27.473171 22.478049 49.95122 49.951219 49.951219h1186.341464c27.473171 0 49.95122-22.478049 49.951219-49.951219V494.517073c-2.497561-29.970732-22.478049-49.95122-52.44878-49.951219z m14.985366 499.512195c0 14.985366-9.990244 24.97561-24.97561 24.97561H79.921951c-14.985366 0-24.97561-9.990244-24.97561-24.97561V504.507317c0-14.985366 9.990244-24.97561 24.97561-24.97561h1161.365854c14.985366 0 24.97561 9.990244 24.97561 24.97561v439.570732z m-222.282927-539.473171L716.8 77.42439c-2.497561 12.487805-7.492683 24.97561-17.482927 37.463415l292.214634 292.214634h54.946342zM574.439024 112.390244c-7.492683-9.990244-14.985366-22.478049-17.482926-37.463415L227.278049 404.604878h52.44878L574.439024 112.390244z" p-id="3219" fill="#000"/></svg>