<?xml version="1.0" encoding="utf-8"?>
<!-- Generator: Adobe Illustrator 21.0.0, SVG Export Plug-In . SVG Version: 6.00 Build 0)  -->
<svg version="1.1" id="图层_1" xmlns="http://www.w3.org/2000/svg" xmlns:xlink="http://www.w3.org/1999/xlink" x="0px" y="0px"
	 viewBox="0 0 250 259" style="enable-background:new 0 0 250 259;" xml:space="preserve">
<style type="text/css">
	.st0{fill:#2B2B2B;}
	.st1{fill:#282828;}
	.st2{fill-rule:evenodd;clip-rule:evenodd;fill:#282828;}
</style>
<g>
	<polygon class="st0" points="151.5,183.7 186.3,183.7 168.9,151.8 	"/>
	<polygon class="st1" points="200.6,93.9 168.9,151.8 186.3,183.7 249.7,183.7 	"/>
	<polygon class="st1" points="93.3,13.8 0.3,183.7 151.5,183.7 168.9,151.8 	"/>
	<ellipse class="st2" cx="211.1" cy="22.8" rx="21.4" ry="22.6"/>
	<g>
		<path class="st1" d="M34.5,207.9l0,30.5c0,10.5-2,16.4-6.2,18l0.5,2.4c6-1.1,10.4-3.9,13.1-8.4l0,0c1.6-2.3,2.3-7,2.2-13.9l0-1.5
			l0-27.2H34.5z"/>
		<path class="st1" d="M3.7,250.4L3.7,250.4c2.7,4.5,7.1,7.3,13.1,8.4l0.5-2.4c-4.2-1.6-6.2-7.5-6.2-18l0-30.5H1.5l0,28.7
			C1.3,243.5,2.1,248.1,3.7,250.4z"/>
		<rect x="176.7" y="208.1" class="st1" width="5.2" height="27.1"/>
		<path class="st1" d="M239,227.6c2.8,3.3,5,5.9,6.5,7.6h2.9v-27.1h-2.5v19.5l-0.6-0.7c-2.5-3-6.2-7.2-11-12.6
			c-2.4-2.7-4.3-4.8-5.5-6.3h-3.3v27.1h2.4V215l4.8,5.2C234,221.9,236.2,224.3,239,227.6z"/>
		<path class="st1" d="M105.8,223.4c0.9,1.5,1.7,2.9,2.4,4.3l4.1,7.5h5.8l-1.1-1.7c-2.1-3.2-4.1-6.6-6-10.1l-0.2-0.4l0.4-0.1
			c3.2-0.8,5.4-3.8,5.4-7.2v-0.2c0-4.1-3.2-7.4-7-7.4H99.1v27.1h5.9v-12h0.7L105.8,223.4z M105,209.5h1.3c2.8,0,5.1,2.8,5.1,6.2
			c0,3.4-2.3,6.2-5.1,6.2H105V209.5z"/>
		<path class="st1" d="M72,215.7v-0.2c0-4.1-3.2-7.4-7-7.4H54.5v27.1h5.9v-12H65C68.9,223.2,72,219.8,72,215.7z M61.7,221.9h-1.3
			v-12.4h1.3c2.8,0,5.1,2.8,5.1,6.2C66.8,219.1,64.5,221.9,61.7,221.9z"/>
		<path class="st1" d="M204,207.8l-0.2,0l-0.2,0c-8.9,0.2-13.9,5.2-13.9,14.1c0,8.9,5,13.9,13.9,14.1l0.2,0l0.2,0
			c8.9-0.2,13.9-5.2,13.9-14.1C217.9,213.1,213,208.1,204,207.8z M203.8,234.3L203.8,234.3L203.8,234.3c-5.2-0.3-8-4.2-8.4-11.6
			c0-0.3,0-0.5,0-0.7v-0.1c0-0.2,0-0.5,0-0.7c0.4-7.4,3.2-11.3,8.3-11.6l0,0l0,0c5.1,0.3,7.9,4.2,8.3,11.6c0,0.1,0,0.3,0,0.4
			c0,0.1,0,0.3,0,0.4c0,0.1,0,0.3,0,0.4c0,0.1,0,0.2,0,0.3C211.7,230.2,208.9,234.1,203.8,234.3z"/>
		<polygon class="st1" points="139,227.2 141.7,235.3 147.9,235.3 137.1,207.7 134.5,207.7 123.3,235.3 126.4,235.3 128.9,228.8 
			135.2,228.8 135.2,226.4 129.8,226.4 134.3,214.5 		"/>
		<polygon class="st1" points="92.5,235.2 92.5,232.3 84.2,232.3 84.2,222.3 91.2,222.2 91.2,219.4 84.2,219.3 84.2,211 92.5,210.9 
			92.5,208.1 78.3,208.1 78.3,235.2 84.2,235.2 84.5,235.2 		"/>
		<polygon class="st1" points="170,208.1 150.7,208.1 150.7,211 157.4,210.9 157.4,235.2 163.3,235.2 163.3,210.9 170,210.9 		"/>
		<g>
			<g>
				<path class="st1" d="M109.9,251.6h-4.1c-0.1-0.3-0.1-0.5-0.2-0.8c0-0.1-0.1-0.2-0.2-0.3c0,0,0,0,0,0h3.3c0.4,0,0.6-0.3,0.6-0.7
					l0-2c0-0.4-0.3-0.6-0.7-0.6l-3.5,0c0,0,0,0,0,0c-0.1-0.1-0.2-0.3-0.2-0.5c-0.1-0.2-0.2-0.4-0.2-0.5c-0.1-0.2-0.3-0.3-0.5-0.3
					L104,246c-0.1,0-0.2,0.1-0.3,0.2c0,0.1,0,0.2,0,0.4c0.1,0.2,0.2,0.4,0.2,0.6l-4.2,0c-0.3,0.1-0.6,0.3-0.6,0.7v4.2
					c0,1.5-0.1,2.6-0.2,3.3c-0.1,0.7-0.5,1.4-0.9,2.1c-0.1,0.2-0.1,0.4,0.1,0.6l0.3,0.2c0.1,0.1,0.2,0.1,0.3,0.1
					c0.1,0,0.2-0.1,0.3-0.2c0.5-0.8,0.9-1.7,1-2.5c0.2-0.8,0.3-1.9,0.3-3.3c0.1,0.2,0.2,0.3,0.4,0.3h1.9c0,1.3-0.2,2.3-0.5,2.9
					c-0.3,0.6-0.9,1.3-1.9,2c-0.1,0.1-0.2,0.2-0.2,0.3c0,0.1,0,0.3,0.1,0.4l0.3,0.3c0.1,0.1,0.2,0.1,0.3,0.1c0.1,0,0.2,0,0.2-0.1
					c1.5-1.1,2.5-2.4,2.7-3.8l4.1,0c0,0,0,0,0,0c0,0.1,0,0.4,0,0.7l0,0.5c0,0.4-0.1,0.7-0.3,0.9c-0.2,0.2-0.5,0.2-0.8,0.2h-1.6
					c-0.1,0-0.2,0.1-0.3,0.2c-0.1,0.1-0.1,0.2-0.1,0.4l0.1,0.4c0,0.2,0.2,0.3,0.4,0.3h1.6c1.4,0,2.1-0.7,2.2-2.1
					c0-0.2,0.1-0.6,0.1-1.3c0-0.3,0.1-0.5,0-0.6c0-0.4-0.3-0.6-0.7-0.7h-4.5l0-0.4c0-0.3,0-0.5,0-0.6h6.2c0.2,0,0.4-0.2,0.4-0.4
					v-0.3C110.3,251.8,110.2,251.6,109.9,251.6z M108.1,248.3c0.1,0,0.1,0.1,0.1,0.1v1h-8v-1.1H108.1z M100.3,248.3L100.3,248.3
					L100.3,248.3C100.3,248.3,100.3,248.3,100.3,248.3z M100.3,251.9v-1.4h4.7l-0.1,0c-0.1,0-0.2,0.1-0.3,0.2
					c-0.1,0.1-0.1,0.2,0,0.4c0,0.1,0,0.2,0.1,0.3c0,0.1,0,0.1,0,0.2h-4C100.5,251.6,100.3,251.8,100.3,251.9z"/>
				<path class="st1" d="M125.1,250.7h-5.5v-1.8h4.7c0.2,0,0.4-0.2,0.4-0.4v-0.4c0-0.2-0.2-0.4-0.4-0.4h-4.7v-1.3
					c0-0.2-0.2-0.4-0.4-0.4h-0.3c-0.2,0-0.4,0.2-0.4,0.4v4.4H114c-0.2,0-0.4,0.2-0.4,0.4v0.4c0,0.2,0.2,0.4,0.4,0.4h11.1
					c0.2,0,0.4-0.2,0.4-0.4v-0.4C125.5,250.9,125.3,250.7,125.1,250.7z"/>
				<path class="st1" d="M124.3,255.3c-0.5-0.2-1.3-0.6-2.2-1.1c-0.8-0.4-2.2-1.2-2.7-1.4c0,0-0.1,0-0.1,0c0,0-0.1,0-0.1,0h-0.3
					c-0.2,0-0.4,0.2-0.4,0.4v5.1c0,0.2,0.2,0.4,0.4,0.4h0.3c0.2,0,0.4-0.2,0.4-0.4v-4.1c1,0.5,2.7,1.4,4.2,2.2
					c0.2,0.1,0.4,0,0.5-0.1l0.2-0.3c0.1-0.1,0.1-0.2,0.1-0.4C124.5,255.5,124.4,255.3,124.3,255.3z"/>
				<path class="st1" d="M85.8,256.5c0.1,0.1,0.2,0.2,0.3,0.2c0.1,0,0.2,0,0.3-0.1l0.3-0.2c0.1-0.1,0.2-0.2,0.2-0.3
					c0-0.1,0-0.2-0.1-0.3c-0.1-0.1-0.3-0.4-0.6-0.6l-0.6-0.6c-0.1-0.2-0.4-0.2-0.5,0l-0.3,0.2c-0.1,0.1-0.2,0.2-0.2,0.3
					c0,0.1,0,0.2,0.1,0.3c0.1,0.1,0.2,0.2,0.4,0.4C85.4,256.1,85.6,256.4,85.8,256.5z"/>
				<path class="st1" d="M94.4,249.6c-2.2-0.9-3.8-2.1-4.9-3.5c-0.1-0.1-0.2-0.2-0.3-0.2h-0.8c-0.1,0-0.2,0.1-0.3,0.2
					c-1.1,1.4-2.8,2.7-4.9,3.7c-0.1,0.1-0.2,0.1-0.2,0.3c0,0.1,0,0.2,0,0.3l0.2,0.3c0.1,0.2,0.3,0.3,0.6,0.2
					c0.4-0.2,0.8-0.4,1.1-0.6c0,0,0,0,0,0.1v0.3c0,0.2,0.2,0.4,0.4,0.4h7c0.2,0,0.4-0.2,0.4-0.4v-0.3c0-0.1,0-0.2-0.1-0.3
					c0.4,0.2,0.9,0.4,1.4,0.6c0.2,0.1,0.4,0,0.5-0.2l0.2-0.3c0-0.1,0.1-0.2,0-0.3C94.6,249.7,94.5,249.6,94.4,249.6z M88.8,247.1
					c0.9,1.1,2.1,2.1,3.5,2.9c0,0,0,0,0,0h-6.8C86.8,249.1,87.9,248.1,88.8,247.1z"/>
				<path class="st1" d="M91.9,254.5c-0.3,0.4-0.7,0.8-1.2,1.2v0c-0.1,0.1-0.1,0.2-0.1,0.3c0,0.1,0.1,0.2,0.1,0.3l0.2,0.2
					c0.1,0.1,0.2,0.1,0.3,0.1c0.1,0,0.2,0,0.3-0.1c0.2-0.2,0.4-0.4,0.7-0.7l0.6-0.6c0.1-0.1,0.1-0.2,0.1-0.3c0-0.1-0.1-0.2-0.2-0.3
					l-0.3-0.2C92.3,254.3,92.1,254.3,91.9,254.5z"/>
				<path class="st1" d="M94.1,257.1h-4.7v-3.2h3.9c0.2,0,0.4-0.2,0.4-0.4v-0.3c0-0.2-0.2-0.4-0.4-0.4h-3.9v-0.7
					c0-0.2-0.2-0.4-0.4-0.4h-0.3c-0.2,0-0.4,0.2-0.4,0.4v0.7h-3.9c-0.2,0-0.4,0.2-0.4,0.4v0.3c0,0.2,0.2,0.4,0.4,0.4h3.9v3.2h-4.7
					c-0.2,0-0.4,0.2-0.4,0.4v0.3c0,0.2,0.2,0.4,0.4,0.4h10.6c0.2,0,0.4-0.2,0.4-0.4v-0.3C94.5,257.3,94.3,257.1,94.1,257.1z"/>
				<path class="st1" d="M133.1,252.2c0,0.3,0.2,0.5,0.4,0.5h6.3c0.2,0,0.4-0.2,0.4-0.5V252c0-0.3-0.2-0.5-0.4-0.5h-6.3
					c-0.2,0-0.4,0.2-0.4,0.5V252.2z"/>
				<path class="st1" d="M139.8,253.6L139.8,253.6h-6.1c-0.4,0-0.7,0.3-0.7,0.8l0,2.8c0,0.5,0.3,0.7,0.7,0.8l6.1,0
					c0.4,0,0.7-0.3,0.7-0.8l0-2.8C140.4,253.9,140.2,253.6,139.8,253.6z M139.3,256.8C139.3,256.8,139.3,256.8,139.3,256.8l-5.2,0
					c-0.1,0-0.1,0-0.1,0v-2.1c0-0.1,0-0.1,0.1-0.1h4.9c0.1,0,0.2,0.1,0.2,0.3L139.3,256.8z"/>
				<path class="st1" d="M133.6,250.6h6.2c0.2,0,0.4-0.2,0.4-0.5v-0.2c0-0.3-0.2-0.5-0.4-0.5h-6.2c-0.2,0-0.4,0.2-0.4,0.5v0.2
					C133.1,250.4,133.3,250.6,133.6,250.6z"/>
				<path class="st1" d="M132.5,246.6c0-0.1,0-0.3,0-0.4c-0.1-0.1-0.2-0.2-0.3-0.2l-0.3-0.1c-0.2-0.1-0.4,0.1-0.5,0.3
					c-0.6,2-1.4,3.8-2.4,5.3c-0.1,0.1-0.1,0.2-0.1,0.3c0,0.1,0.1,0.2,0.2,0.3l0.2,0.2c0.1,0.1,0.2,0.1,0.3,0.1
					c0.1,0,0.2-0.1,0.3-0.2c0.2-0.3,0.3-0.5,0.5-0.8v6.4c0,0.3,0.2,0.5,0.4,0.5h0.2c0.2,0,0.4-0.2,0.4-0.5l0-8.7
					C131.9,248.4,132.2,247.5,132.5,246.6z"/>
				<path class="st1" d="M140.5,247.4H137l0.1,0c0.1-0.1,0.2-0.2,0.2-0.3c0-0.1,0-0.3,0-0.4c-0.1-0.2-0.2-0.4-0.3-0.5
					c-0.1-0.2-0.4-0.3-0.6-0.2l-0.2,0.1c-0.1,0.1-0.2,0.2-0.2,0.3c0,0.1,0,0.2,0,0.3c0.1,0.1,0.1,0.2,0.2,0.4l0.1,0.2h-3.3
					c-0.2,0-0.4,0.2-0.4,0.5v0.3c0,0.3,0.2,0.5,0.4,0.5h7.5c0.2,0,0.4-0.2,0.4-0.5v-0.3C140.9,247.6,140.7,247.4,140.5,247.4z"/>
				<path class="st1" d="M154.7,252.9l0-5.2c0-0.2-0.2-0.7-0.8-0.8H150c0.1-0.2,0.1-0.3,0.1-0.4v0c0-0.1,0-0.3,0-0.4
					c-0.1-0.1-0.2-0.2-0.3-0.2l-0.3,0c-0.2,0-0.4,0.1-0.5,0.3c0,0.1-0.1,0.3-0.1,0.6c0,0.1,0,0.1,0,0.2l-2.3,0
					c-0.4,0-0.7,0.3-0.7,0.8v5.1l0,0.1c0.1,0.4,0.3,0.7,0.7,0.8l0.1,0l7.3,0C154.3,253.6,154.6,253.4,154.7,252.9z M146.9,248.8
					v-0.6c0-0.1,0.1-0.2,0.2-0.2h6.4v0.8H146.9z M153.5,252.6l-6.6,0c0,0,0,0,0,0v-0.8h6.6V252.6z M146.9,250.7v-0.8h6.6v0.8H146.9z
					"/>
				<path class="st1" d="M155.1,254.5c0-0.1-0.1-0.1-0.1-0.2l-0.2-0.2l-0.5,0.4c-0.1,0.1-0.1,0.2-0.2,0.3c0,0.1,0,0.3,0.1,0.3
					c0.4,0.5,0.8,0.9,1,1.3c0.1,0.1,0.2,0.2,0.3,0.2c0,0,0,0,0.1,0c0.1,0,0.2,0,0.3-0.1l0.2-0.2c0.1-0.1,0.1-0.2,0.2-0.3
					c0-0.1,0-0.2-0.1-0.3L155.1,254.5z"/>
				<path class="st1" d="M150.7,255.9c0.1,0,0.2,0,0.3-0.1l0.2-0.2c0.1-0.1,0.2-0.2,0.2-0.3c0-0.1,0-0.3-0.1-0.3l-0.2-0.2
					c-0.3-0.3-0.5-0.6-0.7-0.7c-0.2-0.2-0.4-0.2-0.6,0l-0.2,0.2c-0.1,0.1-0.2,0.2-0.2,0.3c0,0.1,0,0.3,0.1,0.3
					c0.2,0.3,0.5,0.6,0.8,1C150.5,255.8,150.6,255.9,150.7,255.9z"/>
				<path class="st1" d="M153.6,255.4l-0.3-0.1c-0.1-0.1-0.3,0-0.4,0c-0.1,0.1-0.2,0.2-0.2,0.3c0,0.2-0.1,0.5-0.2,0.8
					c-0.1,0.3-0.2,0.6-1,0.6l-2.6,0c-0.4,0-0.6-0.1-0.7-0.2c-0.1-0.1-0.1-0.3-0.1-0.6v-1.4c0-0.3-0.2-0.5-0.4-0.5h-0.2
					c-0.2,0-0.4,0.2-0.4,0.5l0,1.4c0,0.7,0.1,1.2,0.4,1.5c0.3,0.3,0.7,0.4,1.2,0.4c0.1,0,0.1,0,0.2,0l2.8,0c1.4,0.1,1.9-0.7,2-1.4
					c0.1-0.3,0.1-0.6,0.2-0.9C153.9,255.7,153.8,255.5,153.6,255.4z"/>
				<path class="st1" d="M145.9,254.7l-0.2-0.1c-0.1,0-0.2,0-0.3,0c-0.1,0-0.2,0.1-0.2,0.3c-0.2,0.5-0.4,1-0.7,1.6v0
					c-0.1,0.2,0,0.5,0.2,0.6l0.2,0.1c0.1,0,0.1,0,0.2,0c0,0,0.1,0,0.1,0c0.1,0,0.2-0.1,0.3-0.2c0.3-0.7,0.5-1.3,0.7-1.7
					C146.2,255,146.1,254.8,145.9,254.7z"/>
				<path class="st1" d="M167.2,249.4L167.2,249.4c0.1,0.1,0.2,0.1,0.3,0.1c0.1,0,0.2,0,0.3-0.1l0.2-0.2c0.1-0.1,0.1-0.2,0.1-0.3
					c0-0.1-0.1-0.3-0.2-0.3l-1.3-1.1c-0.2-0.1-0.4-0.1-0.6,0l-0.2,0.2c-0.1,0.1-0.1,0.2-0.1,0.3c0,0.1,0.1,0.3,0.2,0.3
					C166.4,248.7,166.8,249.1,167.2,249.4z"/>
				<path class="st1" d="M166.4,252.4L166.4,252.4c0.1,0.1,0.2,0.1,0.3,0.1c0.1,0,0.2,0,0.3-0.1l0.2-0.2c0.1-0.1,0.1-0.2,0.1-0.3
					c0-0.1-0.1-0.3-0.2-0.3c-0.4-0.4-0.8-0.7-1.2-1.1c-0.2-0.2-0.4-0.1-0.6,0.1l-0.2,0.2c-0.1,0.1-0.1,0.2-0.1,0.3
					c0,0.1,0.1,0.2,0.2,0.3C165.7,251.7,166.1,252.1,166.4,252.4z"/>
				<path class="st1" d="M171.4,253.5c-0.1-0.1-0.2-0.1-0.3-0.1l-1.2,0.1v-7c0-0.3-0.2-0.5-0.4-0.5h-0.2c-0.2,0-0.4,0.2-0.4,0.5v7.1
					l-4,0.4c-0.2,0-0.4,0.2-0.4,0.5l0,0.3c0,0.1,0.1,0.2,0.2,0.3c0.1,0.1,0.2,0.1,0.3,0.1l3.9-0.4v3c0,0.3,0.2,0.5,0.4,0.5h0.2
					c0.2,0,0.4-0.2,0.4-0.5v-3.1l1.3-0.2c0.2,0,0.4-0.2,0.4-0.5l0-0.2C171.6,253.6,171.5,253.5,171.4,253.5z"/>
				<path class="st1" d="M164.6,252.9c0-0.1-0.1-0.3-0.1-0.3l-0.9-0.9c-0.1-0.1-0.4-0.2-0.5,0v-1.1h1.2c0.2,0,0.4-0.2,0.4-0.5v-0.2
					c0-0.3-0.2-0.5-0.4-0.5H163v-1.9c0.4,0,0.8-0.1,1.1-0.1c0.1,0,0.2-0.1,0.3-0.2c0.1-0.1,0.1-0.2,0.1-0.4l-0.1-0.3
					c-0.1-0.2-0.3-0.4-0.5-0.3c-1.3,0.2-2.4,0.3-3.3,0.3c-0.1,0-0.2,0.1-0.3,0.2c-0.1,0.1-0.1,0.2-0.1,0.4l0,0.3
					c0,0.2,0.2,0.4,0.4,0.4c0.1,0,0.3,0,0.5,0c0.2,0,0.4,0,0.5,0v1.7h-1.4c-0.2,0-0.4,0.2-0.4,0.5v0.2c0,0.3,0.2,0.5,0.4,0.5h1.3
					c-0.5,1.5-1.1,2.8-1.9,4c-0.1,0.2-0.1,0.5,0.1,0.6l0.2,0.2c0.1,0.1,0.2,0.1,0.3,0.1c0.1,0,0.2-0.1,0.3-0.2
					c0.4-0.7,0.7-1.4,1-2.1v4.5c0,0.3,0.2,0.5,0.4,0.5h0.2c0.2,0,0.4-0.2,0.4-0.5v-4.9c0.1,0.1,0.2,0.2,0.3,0.3l0.4,0.4
					c0.2,0.2,0.4,0.2,0.6,0l0.2-0.2C164.5,253.1,164.6,253,164.6,252.9z"/>
				<path class="st1" d="M186.5,247.7h-2.7v-1.4c0-0.2-0.2-0.5-0.4-0.5h-0.3c-0.2,0-0.4,0.2-0.4,0.5v1.4h-2.5
					c-0.2,0-0.4,0.2-0.4,0.5v0.3c0,0.2,0.2,0.5,0.4,0.5h2.5v1.7h-2.3c-0.2,0-0.4,0.2-0.4,0.5v0.1l0.4,0.4c0.5,1.7,1.2,3,2,3.9
					c-0.7,0.4-1.7,1-3.1,1.6c-0.1,0.1-0.2,0.2-0.2,0.3c0,0.1,0,0.3,0,0.4l0.2,0.3c0.1,0.1,0.2,0.2,0.4,0.2c0.1,0,0.1,0,0.2,0
					c1.5-0.6,2.6-1.2,3.4-1.9c0.7,0.6,1.7,1.2,2.9,1.8c0.2,0.1,0.4,0,0.5-0.2l0.2-0.3c0.1-0.1,0.1-0.3,0.1-0.4
					c0-0.1-0.1-0.2-0.3-0.3c-1.1-0.4-2-0.9-2.6-1.4c1-1,1.7-2.3,2.2-3.9c0.1-0.2,0.1-0.4,0-0.7c0-0.1-0.1-0.2-0.2-0.3
					c-0.1-0.1-0.3-0.2-0.5-0.2h-1.8v-1.7h2.7c0.2,0,0.4-0.2,0.4-0.5v-0.3C186.9,247.9,186.7,247.7,186.5,247.7z M185.1,251.8
					c-0.5,1.3-1.2,2.3-1.9,3c-0.7-0.8-1.2-1.8-1.6-3L185.1,251.8z"/>
				<path class="st1" d="M179.3,252.1v-0.2c0-0.1-0.1-0.3-0.2-0.4c-0.1-0.1-0.3-0.1-0.4-0.1c-0.2,0.1-0.4,0.1-0.5,0.2
					c-0.1,0-0.2,0-0.2,0.1v-2.3h0.9c0.2,0,0.4-0.2,0.4-0.5v-0.2c0-0.2-0.2-0.5-0.4-0.5H178v-1.8c0-0.2-0.2-0.5-0.4-0.5h-0.3
					c-0.2,0-0.4,0.2-0.4,0.5v1.8h-1.1c-0.2,0-0.4,0.2-0.4,0.5v0.2c0,0.2,0.2,0.5,0.4,0.5h1.1v2.6c-0.2,0-0.4,0.1-0.6,0.2
					c-0.3,0.1-0.5,0.1-0.6,0.2c-0.2,0.1-0.4,0.3-0.3,0.5l0,0.3c0,0.1,0.1,0.2,0.2,0.3c0.1,0.1,0.2,0.1,0.4,0.1
					c0.4-0.1,0.7-0.2,1-0.3l0,3.3c0,0.2,0,0.4-0.1,0.5c-0.1,0.1-0.2,0.1-0.4,0.1c-0.2,0-0.3,0-0.5,0c-0.1,0-0.3,0-0.3,0.1
					c-0.1,0.1-0.1,0.2-0.1,0.4l0,0.3c0,0.2,0.2,0.4,0.4,0.4h0.6c0.5,0,0.8-0.1,1.1-0.4c0.3-0.3,0.4-0.7,0.4-1.3v-3.7
					c0.4-0.1,0.7-0.2,1-0.3C179.2,252.4,179.3,252.3,179.3,252.1z"/>
				<path class="st1" d="M201.9,247.4h-5.8c0.1-0.1,0.1-0.2,0.2-0.4c0.1-0.1,0.1-0.3,0.2-0.4c0.1-0.1,0.1-0.3,0-0.4
					c0-0.1-0.1-0.2-0.3-0.3l-0.3-0.1c-0.2-0.1-0.4,0-0.5,0.2c-0.2,0.4-0.4,0.8-0.6,1.3h-3.3c-0.2,0-0.4,0.2-0.4,0.5v0.2
					c0,0.3,0.2,0.5,0.4,0.5h2.6c-1,1.5-2.1,2.9-3.4,4c-0.1,0.1-0.1,0.2-0.2,0.3c0,0.1,0,0.2,0.1,0.3l0.2,0.2
					c0.1,0.1,0.2,0.1,0.3,0.1c0.1,0,0.2,0,0.3-0.1c0.5-0.5,1-0.9,1.4-1.4v5.8c0,0.3,0.2,0.5,0.4,0.5h0.3c0.2,0,0.4-0.2,0.4-0.5v-2.3
					h5.8l0,0.9c0,0.2,0,0.4-0.1,0.5c-0.1,0.1-0.3,0.2-0.6,0.1H198c-0.1,0-0.3,0.1-0.3,0.2c-0.1,0.1-0.1,0.3-0.1,0.4l0.1,0.3
					c0.1,0.2,0.2,0.3,0.4,0.3c0,0,0,0,0,0c0.6,0,1.1,0,1.3-0.1c0.6,0,1-0.1,1.3-0.4c0.3-0.3,0.4-0.7,0.4-1.3l0-6.1
					c0-0.4-0.3-0.6-0.7-0.6h-5.7c0.3-0.4,0.5-0.8,0.7-1.2h6.4c0.2,0,0.4-0.2,0.4-0.5v-0.2C202.4,247.6,202.2,247.4,201.9,247.4z
					 M199.8,250.8c0.1,0,0.1,0.1,0.1,0.1v1h-5.8v-1.2H199.8z M194.1,250.8L194.1,250.8L194.1,250.8
					C194.1,250.8,194.1,250.8,194.1,250.8z M199.9,253.2v1.2h-5.8v-1.2H199.9z"/>
				<path class="st1" d="M209.1,250.6l0.9-3c0-0.2,0.1-0.3,0.1-0.5c0-0.2,0-0.4-0.2-0.6c-0.1-0.2-0.4-0.3-0.6-0.3l-2.4,0
					c-0.4,0-0.6,0.3-0.6,0.7v10.8c0,0.2,0.2,0.5,0.4,0.5h0.3c0.2,0,0.4-0.2,0.4-0.5l0-10.3h1.5l-0.9,3c-0.2,0.5,0,0.8,0.2,1
					c0.6,0.8,0.9,1.7,0.9,2.5c0,0.9-0.3,1.1-0.6,1.1H208c-0.1,0-0.3,0.1-0.3,0.2c-0.1,0.1-0.1,0.2-0.1,0.4l0.1,0.2
					c0,0.2,0.2,0.4,0.4,0.4l0.1,0c0.2,0,0.4,0,0.5,0c0.7-0.1,1.5-0.5,1.5-2.1c0-1-0.3-2.1-1.1-3.2
					C209.1,250.7,209,250.7,209.1,250.6z"/>
				<path class="st1" d="M217.3,256.9c-0.9-0.5-1.6-1.1-2.1-1.6c0.2-0.1,0.5-0.3,0.8-0.5c0.5-0.3,0.9-0.6,1.2-0.8
					c0.1-0.1,0.2-0.2,0.2-0.3c0-0.1,0-0.2-0.1-0.3l-0.2-0.2c-0.1-0.2-0.4-0.2-0.6-0.1c-0.8,0.6-1.4,1-2,1.3c-0.3-0.4-0.5-1-0.8-1.8
					l2.2,0c0.4,0,0.6-0.3,0.6-0.7l0-4.9c0-0.4-0.3-0.6-0.7-0.7h-4.6c-0.4,0-0.6,0.3-0.6,0.7v9.7c0,0.4,0,0.8,0.1,1
					c0.1,0.3,0.5,0.5,1.2,0.1l1.5-0.8c0.2-0.1,0.3-0.3,0.2-0.5l-0.1-0.3c0-0.1-0.1-0.2-0.2-0.3c-0.1-0.1-0.3,0-0.4,0
					c-0.4,0.2-0.8,0.5-1.3,0.7v-4h0.9c0.6,2.4,2,4.3,4.1,5.4c0.1,0,0.1,0.1,0.2,0.1c0.1,0,0.3-0.1,0.4-0.2l0.1-0.3
					c0.1-0.1,0.1-0.2,0-0.3C217.5,257.1,217.4,257,217.3,256.9z M215.5,250v1.5h-3.7V250H215.5z M215.4,247.4c0.1,0,0.1,0.1,0.1,0.1
					v1.3h-3.7v-1.5H215.4z M211.8,247.4L211.8,247.4L211.8,247.4C211.8,247.4,211.8,247.4,211.8,247.4z"/>
				<path class="st1" d="M226.3,247.3c0.1-0.1,0.1-0.2,0-0.4c0-0.1-0.1-0.2-0.2-0.3l-0.3-0.1c-0.2-0.1-0.5,0-0.6,0.2
					c-0.9,1.9-2,3.4-3.4,4.6h0c-0.1,0.1-0.2,0.2-0.2,0.3c0,0.1,0,0.3,0.1,0.3l0.3,0.3c0.1,0.1,0.2,0.1,0.3,0.1c0.1,0,0.2,0,0.3-0.1
					C224.1,250.9,225.3,249.2,226.3,247.3z"/>
				<path class="st1" d="M229.5,246.6c-0.1-0.2-0.3-0.3-0.5-0.3l-0.3,0.1c-0.1,0-0.2,0.1-0.3,0.2c-0.1,0.1-0.1,0.3,0,0.4
					c0.8,2,2,3.6,3.7,5c0.1,0.1,0.2,0.1,0.3,0.1c0.1,0,0.2-0.1,0.3-0.2l0.2-0.3c0.1-0.1,0.1-0.2,0.1-0.3c0-0.1-0.1-0.2-0.2-0.3
					C231.3,249.8,230.2,248.4,229.5,246.6z"/>
				<path class="st1" d="M232,256.7c-1.2-1.5-2.1-2.6-2.6-3.3c-0.1-0.2-0.4-0.2-0.6-0.1l-0.2,0.2c-0.1,0.1-0.2,0.2-0.2,0.3
					c0,0.1,0,0.3,0.1,0.3l1.4,1.9c-0.2,0-0.5,0-0.9,0c-2,0.1-3.6,0.2-4.6,0.2c1.2-1.6,2.2-3,3-4.3c0.1-0.1,0.1-0.2,0.1-0.4
					c0-0.1-0.1-0.2-0.2-0.3l-0.3-0.2c-0.2-0.1-0.5,0-0.6,0.2c-1,1.8-2.2,3.4-3.4,4.8c-0.4,0.4-0.4,0.7-0.4,1c0,0.1,0.1,0.2,0.1,0.3
					c0.2,0.2,0.5,0.2,1.1,0.2c1.6-0.1,3.6-0.2,6.2-0.3c0.4,0,0.7,0,0.9,0c0.2,0.3,0.4,0.6,0.6,0.8h0c0.1,0.1,0.2,0.1,0.3,0.1
					c0.1,0,0.2,0,0.3-0.1l0.3-0.3c0.2-0.2,0.2-0.4,0.1-0.6C232.2,257.1,232.1,256.9,232,256.7z"/>
				<path class="st1" d="M244.9,255.3V252c0-0.4-0.2-0.7-0.6-0.7l-5.5,0c-0.4,0-0.6,0.3-0.6,0.7v3.3c0,0.4,0.3,0.7,0.7,0.8h5.4
					C244.7,256,244.9,255.8,244.9,255.3z M243.8,254.9h-4.5c0,0,0,0,0,0l0-2.4c0,0,0,0,0,0l4.5,0L243.8,254.9z"/>
				<path class="st1" d="M247.4,246.3h-9.6v1.2l9.4,0l0,8.7c0,0.3,0,0.5-0.2,0.7c-0.1,0.1-0.4,0.2-0.7,0.2h-2v1.3h0.2
					c1,0,1.6,0,2-0.1c0.8,0,1.8-0.4,1.8-2.1v-8.9C248.3,246.6,248,246.3,247.4,246.3z"/>
				<rect x="237.1" y="248.8" class="st1" width="9.1" height="1.2"/>
				<path class="st1" d="M63.4,247.7l-3.7,0c0-0.1,0-0.1-0.1-0.2c-0.1-0.2-0.3-0.7-0.5-1l-0.2-0.3c-0.1-0.2-0.4-0.3-0.6-0.2
					l-0.2,0.1c-0.1,0.1-0.2,0.2-0.2,0.3c0,0.1,0,0.3,0,0.4c0.1,0.2,0.3,0.6,0.5,0.9l-4.1,0c-0.4,0-0.6,0.3-0.7,0.7v2.7
					c0.1,2.7-0.4,4.7-1.5,6.1c-0.1,0.1-0.1,0.2-0.1,0.4c0,0.1,0.1,0.3,0.2,0.3l0.2,0.2c0.1,0.1,0.2,0.1,0.3,0.1c0,0,0,0,0.1,0
					c0.1,0,0.2-0.1,0.3-0.2c1.2-1.6,1.7-4,1.7-6.9l0-2.2h8.6c0.3,0,0.5-0.2,0.5-0.5v-0.2C63.8,247.9,63.6,247.7,63.4,247.7z"/>
				<path class="st1" d="M68.4,253.1c0.1,0,0.1,0,0.2-0.1c0.1-0.1,0.2-0.2,0.2-0.3l0.7-2.5c0-0.1,0-0.3-0.1-0.4
					c-0.1-0.1-0.2-0.2-0.3-0.2l-0.2,0c-0.2-0.1-0.5,0.1-0.6,0.4c-0.1,0.4-0.2,0.7-0.3,1c-0.1,0.4-0.2,0.8-0.4,1.5
					c-0.1,0.3,0.1,0.5,0.3,0.6l0.2,0.1C68.3,253.1,68.3,253.1,68.4,253.1z"/>
				<path class="st1" d="M78.4,246.5h-0.2c-0.3,0-0.5,0.2-0.5,0.5v10.7c0,0.3,0.2,0.5,0.5,0.5h0.2c0.3,0,0.4-0.2,0.4-0.5V247
					C78.9,246.7,78.7,246.5,78.4,246.5z"/>
				<path class="st1" d="M72.9,250.8c-0.1-0.3-0.2-0.6-0.3-0.8c0-0.1-0.1-0.2-0.3-0.3c-0.1-0.1-0.3-0.1-0.4,0l-0.1,0.1
					c-0.2,0.1-0.4,0.4-0.3,0.7l0.2,0.5c0.2,0.7,0.4,1.1,0.5,1.5c0,0.1,0.1,0.2,0.3,0.3c0.1,0,0.1,0,0.2,0c0.1,0,0.1,0,0.2,0l0.2-0.1
					c0.2-0.1,0.3-0.4,0.2-0.6C73.3,251.6,73.1,251.2,72.9,250.8z"/>
				<path class="st1" d="M70.7,246.1h-0.2c-0.3,0-0.5,0.2-0.5,0.5v3.3c0,2.1-0.1,3.7-0.4,4.7c-0.2,0.9-0.7,1.8-1.4,2.6
					c-0.1,0.1-0.1,0.2-0.1,0.4c0,0.1,0.1,0.3,0.2,0.3l0.2,0.2c0.1,0.1,0.2,0.1,0.3,0.1c0,0,0,0,0,0c0.1,0,0.2-0.1,0.3-0.2
					c0.8-1,1.3-2,1.6-3c0.3-1.1,0.4-2.8,0.4-5.1v-3.3C71.1,246.3,70.9,246.1,70.7,246.1z"/>
				<path class="st1" d="M74.5,246.3h-0.2c-0.3,0-0.5,0.2-0.5,0.5v10.7c0,0.3,0.2,0.5,0.5,0.5h0.2c0.3,0,0.5-0.2,0.5-0.5v-10.7
					C75,246.5,74.8,246.3,74.5,246.3z"/>
				<path class="st1" d="M76.7,250.4c-0.1-0.2-0.1-0.3-0.2-0.4c-0.1-0.3-0.4-0.4-0.6-0.3l-0.2,0.1c-0.1,0.1-0.2,0.2-0.3,0.3
					c0,0.1,0,0.3,0,0.4c0.1,0.2,0.1,0.3,0.2,0.5c0.3,0.7,0.4,1.1,0.6,1.5c0,0.1,0.1,0.2,0.3,0.3c0.1,0,0.1,0,0.2,0
					c0.1,0,0.1,0,0.2,0l0.2-0.1c0.2-0.1,0.3-0.4,0.2-0.6C77.2,251.6,76.9,251.1,76.7,250.4z"/>
			</g>
		</g>
	</g>
</g>
</svg>
